<?xml version="1.0" encoding="utf-8" standalone="no"?>
<!DOCTYPE svg PUBLIC "-//W3C//DTD SVG 1.1//EN"
  "http://www.w3.org/Graphics/SVG/1.1/DTD/svg11.dtd">
<svg height="377.39625pt" version="1.1" viewBox="0 0 505.760937 377.39625" width="505.760937pt" xmlns="http://www.w3.org/2000/svg" xmlns:xlink="http://www.w3.org/1999/xlink">
 <metadata>
  <rdf:RDF xmlns:cc="http://creativecommons.org/ns#" xmlns:dc="http://purl.org/dc/elements/1.1/" xmlns:rdf="http://www.w3.org/1999/02/22-rdf-syntax-ns#">
   <cc:Work>
    <dc:type rdf:resource="http://purl.org/dc/dcmitype/StillImage"/>
    <dc:date>2023-09-11T09:37:17.629836</dc:date>
    <dc:format>image/svg+xml</dc:format>
    <dc:creator>
     <cc:Agent>
      <dc:title>Matplotlib v3.4.3, https://matplotlib.org/</dc:title>
     </cc:Agent>
    </dc:creator>
   </cc:Work>
  </rdf:RDF>
 </metadata>
 <defs>
  <style type="text/css">*{stroke-linecap:butt;stroke-linejoin:round;}</style>
 </defs>
 <g id="figure_1">
  <g id="patch_1">
   <path d="M 0 377.39625 
L 505.760937 377.39625 
L 505.760937 0 
L 0 0 
z
" style="fill:#ffffff;"/>
  </g>
  <g id="axes_1">
   <g id="patch_2">
    <path d="M 52.160938 339.84 
L 498.560937 339.84 
L 498.560937 7.2 
L 52.160938 7.2 
z
" style="fill:#ffffff;"/>
   </g>
   <g id="PathCollection_1">
    <defs>
     <path d="M 0 3 
C 0.795609 3 1.55874 2.683901 2.12132 2.12132 
C 2.683901 1.55874 3 0.795609 3 -0 
C 3 -0.795609 2.683901 -1.55874 2.12132 -2.12132 
C 1.55874 -2.683901 0.795609 -3 0 -3 
C -0.795609 -3 -1.55874 -2.683901 -2.12132 -2.12132 
C -2.683901 -1.55874 -3 -0.795609 -3 0 
C -3 0.795609 -2.683901 1.55874 -2.12132 2.12132 
C -1.55874 2.683901 -0.795609 3 0 3 
z
" id="C0_0_32852acfe0"/>
    </defs>
    <g clip-path="url(#pb9512f2b1e)">
     <use style="fill:#fc8d62;stroke:#ffffff;stroke-width:0.48;" x="303.360015" xlink:href="#C0_0_32852acfe0" y="149.154136"/>
    </g>
    <g clip-path="url(#pb9512f2b1e)">
     <use style="fill:#fc8d62;stroke:#ffffff;stroke-width:0.48;" x="242.571094" xlink:href="#C0_0_32852acfe0" y="160.808486"/>
    </g>
    <g clip-path="url(#pb9512f2b1e)">
     <use style="fill:#fc8d62;stroke:#ffffff;stroke-width:0.48;" x="302.585194" xlink:href="#C0_0_32852acfe0" y="139.189587"/>
    </g>
    <g clip-path="url(#pb9512f2b1e)">
     <use style="fill:#fc8d62;stroke:#ffffff;stroke-width:0.48;" x="181.10042" xlink:href="#C0_0_32852acfe0" y="273.431093"/>
    </g>
    <g clip-path="url(#pb9512f2b1e)">
     <use style="fill:#fc8d62;stroke:#ffffff;stroke-width:0.48;" x="241.429711" xlink:href="#C0_0_32852acfe0" y="136.721825"/>
    </g>
    <g clip-path="url(#pb9512f2b1e)">
     <use style="fill:#e78ac3;stroke:#ffffff;stroke-width:0.48;" x="280.784853" xlink:href="#C0_0_32852acfe0" y="151.211086"/>
    </g>
    <g clip-path="url(#pb9512f2b1e)">
     <use style="fill:#e78ac3;stroke:#ffffff;stroke-width:0.48;" x="208.78744" xlink:href="#C0_0_32852acfe0" y="113.380394"/>
    </g>
    <g clip-path="url(#pb9512f2b1e)">
     <use style="fill:#e78ac3;stroke:#ffffff;stroke-width:0.48;" x="332.43864" xlink:href="#C0_0_32852acfe0" y="202.902343"/>
    </g>
    <g clip-path="url(#pb9512f2b1e)">
     <use style="fill:#fc8d62;stroke:#ffffff;stroke-width:0.48;" x="315.454532" xlink:href="#C0_0_32852acfe0" y="181.157379"/>
    </g>
    <g clip-path="url(#pb9512f2b1e)">
     <use style="fill:#fc8d62;stroke:#ffffff;stroke-width:0.48;" x="212.975918" xlink:href="#C0_0_32852acfe0" y="261.747701"/>
    </g>
    <g clip-path="url(#pb9512f2b1e)">
     <use style="fill:#fc8d62;stroke:#ffffff;stroke-width:0.48;" x="216.172041" xlink:href="#C0_0_32852acfe0" y="259.460007"/>
    </g>
    <g clip-path="url(#pb9512f2b1e)">
     <use style="fill:#e78ac3;stroke:#ffffff;stroke-width:0.48;" x="302.056419" xlink:href="#C0_0_32852acfe0" y="142.955786"/>
    </g>
    <g clip-path="url(#pb9512f2b1e)">
     <use style="fill:#fc8d62;stroke:#ffffff;stroke-width:0.48;" x="297.175012" xlink:href="#C0_0_32852acfe0" y="130.726786"/>
    </g>
    <g clip-path="url(#pb9512f2b1e)">
     <use style="fill:#fc8d62;stroke:#ffffff;stroke-width:0.48;" x="370.56267" xlink:href="#C0_0_32852acfe0" y="201.996527"/>
    </g>
    <g clip-path="url(#pb9512f2b1e)">
     <use style="fill:#fc8d62;stroke:#ffffff;stroke-width:0.48;" x="249.599159" xlink:href="#C0_0_32852acfe0" y="201.539513"/>
    </g>
    <g clip-path="url(#pb9512f2b1e)">
     <use style="fill:#fc8d62;stroke:#ffffff;stroke-width:0.48;" x="332.173521" xlink:href="#C0_0_32852acfe0" y="165.354422"/>
    </g>
    <g clip-path="url(#pb9512f2b1e)">
     <use style="fill:#e78ac3;stroke:#ffffff;stroke-width:0.48;" x="383.450948" xlink:href="#C0_0_32852acfe0" y="213.243577"/>
    </g>
    <g clip-path="url(#pb9512f2b1e)">
     <use style="fill:#e78ac3;stroke:#ffffff;stroke-width:0.48;" x="292.142321" xlink:href="#C0_0_32852acfe0" y="133.258918"/>
    </g>
    <g clip-path="url(#pb9512f2b1e)">
     <use style="fill:#fc8d62;stroke:#ffffff;stroke-width:0.48;" x="219.541012" xlink:href="#C0_0_32852acfe0" y="264.884791"/>
    </g>
    <g clip-path="url(#pb9512f2b1e)">
     <use style="fill:#fc8d62;stroke:#ffffff;stroke-width:0.48;" x="142.24039" xlink:href="#C0_0_32852acfe0" y="222.510244"/>
    </g>
    <g clip-path="url(#pb9512f2b1e)">
     <use style="fill:#e78ac3;stroke:#ffffff;stroke-width:0.48;" x="248.677368" xlink:href="#C0_0_32852acfe0" y="83.145781"/>
    </g>
    <g clip-path="url(#pb9512f2b1e)">
     <use style="fill:#fc8d62;stroke:#ffffff;stroke-width:0.48;" x="277.086039" xlink:href="#C0_0_32852acfe0" y="136.579353"/>
    </g>
    <g clip-path="url(#pb9512f2b1e)">
     <use style="fill:#fc8d62;stroke:#ffffff;stroke-width:0.48;" x="276.567012" xlink:href="#C0_0_32852acfe0" y="126.625145"/>
    </g>
    <g clip-path="url(#pb9512f2b1e)">
     <use style="fill:#fc8d62;stroke:#ffffff;stroke-width:0.48;" x="237.031308" xlink:href="#C0_0_32852acfe0" y="76.001961"/>
    </g>
    <g clip-path="url(#pb9512f2b1e)">
     <use style="fill:#fc8d62;stroke:#ffffff;stroke-width:0.48;" x="302.556425" xlink:href="#C0_0_32852acfe0" y="184.22041"/>
    </g>
    <g clip-path="url(#pb9512f2b1e)">
     <use style="fill:#fc8d62;stroke:#ffffff;stroke-width:0.48;" x="206.290492" xlink:href="#C0_0_32852acfe0" y="124.721003"/>
    </g>
    <g clip-path="url(#pb9512f2b1e)">
     <use style="fill:#fc8d62;stroke:#ffffff;stroke-width:0.48;" x="330.707304" xlink:href="#C0_0_32852acfe0" y="145.482893"/>
    </g>
    <g clip-path="url(#pb9512f2b1e)">
     <use style="fill:#fc8d62;stroke:#ffffff;stroke-width:0.48;" x="313.44724" xlink:href="#C0_0_32852acfe0" y="171.730694"/>
    </g>
    <g clip-path="url(#pb9512f2b1e)">
     <use style="fill:#e78ac3;stroke:#ffffff;stroke-width:0.48;" x="210.786081" xlink:href="#C0_0_32852acfe0" y="160.181054"/>
    </g>
    <g clip-path="url(#pb9512f2b1e)">
     <use style="fill:#fc8d62;stroke:#ffffff;stroke-width:0.48;" x="240.478597" xlink:href="#C0_0_32852acfe0" y="109.289933"/>
    </g>
    <g clip-path="url(#pb9512f2b1e)">
     <use style="fill:#fc8d62;stroke:#ffffff;stroke-width:0.48;" x="333.820402" xlink:href="#C0_0_32852acfe0" y="220.204202"/>
    </g>
    <g clip-path="url(#pb9512f2b1e)">
     <use style="fill:#e78ac3;stroke:#ffffff;stroke-width:0.48;" x="365.790123" xlink:href="#C0_0_32852acfe0" y="208.269834"/>
    </g>
    <g clip-path="url(#pb9512f2b1e)">
     <use style="fill:#fc8d62;stroke:#ffffff;stroke-width:0.48;" x="319.258582" xlink:href="#C0_0_32852acfe0" y="154.952656"/>
    </g>
    <g clip-path="url(#pb9512f2b1e)">
     <use style="fill:#e78ac3;stroke:#ffffff;stroke-width:0.48;" x="166.28793" xlink:href="#C0_0_32852acfe0" y="189.849449"/>
    </g>
    <g clip-path="url(#pb9512f2b1e)">
     <use style="fill:#fc8d62;stroke:#ffffff;stroke-width:0.48;" x="259.890313" xlink:href="#C0_0_32852acfe0" y="124.83136"/>
    </g>
    <g clip-path="url(#pb9512f2b1e)">
     <use style="fill:#e78ac3;stroke:#ffffff;stroke-width:0.48;" x="257.290511" xlink:href="#C0_0_32852acfe0" y="246.61677"/>
    </g>
    <g clip-path="url(#pb9512f2b1e)">
     <use style="fill:#fc8d62;stroke:#ffffff;stroke-width:0.48;" x="374.468213" xlink:href="#C0_0_32852acfe0" y="237.328201"/>
    </g>
    <g clip-path="url(#pb9512f2b1e)">
     <use style="fill:#fc8d62;stroke:#ffffff;stroke-width:0.48;" x="311.229308" xlink:href="#C0_0_32852acfe0" y="141.8674"/>
    </g>
    <g clip-path="url(#pb9512f2b1e)">
     <use style="fill:#e78ac3;stroke:#ffffff;stroke-width:0.48;" x="345.688887" xlink:href="#C0_0_32852acfe0" y="198.932409"/>
    </g>
    <g clip-path="url(#pb9512f2b1e)">
     <use style="fill:#fc8d62;stroke:#ffffff;stroke-width:0.48;" x="290.509645" xlink:href="#C0_0_32852acfe0" y="158.093997"/>
    </g>
    <g clip-path="url(#pb9512f2b1e)">
     <use style="fill:#fc8d62;stroke:#ffffff;stroke-width:0.48;" x="308.077586" xlink:href="#C0_0_32852acfe0" y="115.540155"/>
    </g>
    <g clip-path="url(#pb9512f2b1e)">
     <use style="fill:#fc8d62;stroke:#ffffff;stroke-width:0.48;" x="383.355089" xlink:href="#C0_0_32852acfe0" y="219.28241"/>
    </g>
    <g clip-path="url(#pb9512f2b1e)">
     <use style="fill:#fc8d62;stroke:#ffffff;stroke-width:0.48;" x="337.803212" xlink:href="#C0_0_32852acfe0" y="174.340905"/>
    </g>
    <g clip-path="url(#pb9512f2b1e)">
     <use style="fill:#e78ac3;stroke:#ffffff;stroke-width:0.48;" x="258.86074" xlink:href="#C0_0_32852acfe0" y="145.256919"/>
    </g>
    <g clip-path="url(#pb9512f2b1e)">
     <use style="fill:#e78ac3;stroke:#ffffff;stroke-width:0.48;" x="202.010864" xlink:href="#C0_0_32852acfe0" y="210.184455"/>
    </g>
    <g clip-path="url(#pb9512f2b1e)">
     <use style="fill:#fc8d62;stroke:#ffffff;stroke-width:0.48;" x="337.721045" xlink:href="#C0_0_32852acfe0" y="173.92231"/>
    </g>
    <g clip-path="url(#pb9512f2b1e)">
     <use style="fill:#fc8d62;stroke:#ffffff;stroke-width:0.48;" x="341.973865" xlink:href="#C0_0_32852acfe0" y="182.462514"/>
    </g>
   </g>
   <g id="PathCollection_2"/>
   <g id="PathCollection_3"/>
   <g id="PathCollection_4">
    <defs>
     <path d="M 0 5 
C 1.326016 5 2.597899 4.473168 3.535534 3.535534 
C 4.473168 2.597899 5 1.326016 5 0 
C 5 -1.326016 4.473168 -2.597899 3.535534 -3.535534 
C 2.597899 -4.473168 1.326016 -5 0 -5 
C -1.326016 -5 -2.597899 -4.473168 -3.535534 -3.535534 
C -4.473168 -2.597899 -5 -1.326016 -5 0 
C -5 1.326016 -4.473168 2.597899 -3.535534 3.535534 
C -2.597899 4.473168 -1.326016 5 0 5 
z
" id="m02f5a3a257" style="stroke:#fc8d62;"/>
    </defs>
    <g clip-path="url(#pb9512f2b1e)">
     <use style="fill:#fc8d62;stroke:#fc8d62;" x="285.127648" xlink:href="#m02f5a3a257" y="173.52"/>
    </g>
   </g>
   <g id="PathCollection_5">
    <defs>
     <path d="M 0 5 
C 1.326016 5 2.597899 4.473168 3.535534 3.535534 
C 4.473168 2.597899 5 1.326016 5 0 
C 5 -1.326016 4.473168 -2.597899 3.535534 -3.535534 
C 2.597899 -4.473168 1.326016 -5 0 -5 
C -1.326016 -5 -2.597899 -4.473168 -3.535534 -3.535534 
C -4.473168 -2.597899 -5 -1.326016 -5 0 
C -5 1.326016 -4.473168 2.597899 -3.535534 3.535534 
C -2.597899 4.473168 -1.326016 5 0 5 
z
" id="m5fe9405fa5" style="stroke:#e78ac3;"/>
    </defs>
    <g clip-path="url(#pb9512f2b1e)">
     <use style="fill:#e78ac3;stroke:#e78ac3;" x="275.360937" xlink:href="#m5fe9405fa5" y="171.384913"/>
    </g>
   </g>
   <g id="patch_3">
    <path clip-path="url(#pb9512f2b1e)" d="M 400.106625 272.13242 
C 434.657522 242.499633 455.683045 203.686112 458.552566 164.240084 
C 461.422088 124.794057 445.901324 87.936117 415.408542 61.783797 
C 384.915761 35.631478 341.940563 22.32 295.947737 24.781062 
C 249.954911 27.242125 204.699567 45.274793 170.14867 74.90758 
C 135.597773 104.540367 114.57225 143.353888 111.702729 182.799916 
C 108.833207 222.245943 124.353971 259.103883 154.846753 285.256203 
C 185.339534 311.408522 228.314732 324.72 274.307558 322.258938 
C 320.300384 319.797875 365.555728 301.765207 400.106625 272.13242 
z
" style="fill:none;stroke:#fc8d62;stroke-linejoin:miter;"/>
   </g>
   <g id="patch_4">
    <path clip-path="url(#pb9512f2b1e)" d="M 433.784658 281.113766 
C 465.010977 259.485514 478.270028 227.178463 470.64166 191.307866 
C 463.013291 155.437269 435.120324 118.931802 393.105862 89.83137 
C 351.091401 60.730938 298.385738 41.411462 246.596685 36.127833 
C 194.807632 30.844204 148.163536 40.027807 116.937217 61.656059 
C 85.710898 83.284311 72.451847 115.591362 80.080215 151.461959 
C 87.708584 187.332556 115.601551 223.838023 157.616013 252.938455 
C 199.630474 282.038887 252.336137 301.358363 304.12519 306.641992 
C 355.914243 311.925621 402.558339 302.742018 433.784658 281.113766 
z
" style="fill:none;stroke:#e78ac3;stroke-linejoin:miter;"/>
   </g>
   <g id="matplotlib.axis_1">
    <g id="xtick_1">
     <g id="line2d_1">
      <defs>
       <path d="M 0 0 
L 0 3.5 
" id="m8222480754" style="stroke:#000000;stroke-width:0.8;"/>
      </defs>
      <g>
       <use style="stroke:#000000;stroke-width:0.8;" x="57.295757" xlink:href="#m8222480754" y="339.84"/>
      </g>
     </g>
     <g id="text_1">
      <!-- −0.8 -->
      <g transform="translate(45.154351 354.438438)scale(0.1 -0.1)">
       <defs>
        <path d="M 678 2272 
L 4684 2272 
L 4684 1741 
L 678 1741 
L 678 2272 
z
" id="DejaVuSans-2212" transform="scale(0.015625)"/>
        <path d="M 2034 4250 
Q 1547 4250 1301 3770 
Q 1056 3291 1056 2328 
Q 1056 1369 1301 889 
Q 1547 409 2034 409 
Q 2525 409 2770 889 
Q 3016 1369 3016 2328 
Q 3016 3291 2770 3770 
Q 2525 4250 2034 4250 
z
M 2034 4750 
Q 2819 4750 3233 4129 
Q 3647 3509 3647 2328 
Q 3647 1150 3233 529 
Q 2819 -91 2034 -91 
Q 1250 -91 836 529 
Q 422 1150 422 2328 
Q 422 3509 836 4129 
Q 1250 4750 2034 4750 
z
" id="DejaVuSans-30" transform="scale(0.015625)"/>
        <path d="M 684 794 
L 1344 794 
L 1344 0 
L 684 0 
L 684 794 
z
" id="DejaVuSans-2e" transform="scale(0.015625)"/>
        <path d="M 2034 2216 
Q 1584 2216 1326 1975 
Q 1069 1734 1069 1313 
Q 1069 891 1326 650 
Q 1584 409 2034 409 
Q 2484 409 2743 651 
Q 3003 894 3003 1313 
Q 3003 1734 2745 1975 
Q 2488 2216 2034 2216 
z
M 1403 2484 
Q 997 2584 770 2862 
Q 544 3141 544 3541 
Q 544 4100 942 4425 
Q 1341 4750 2034 4750 
Q 2731 4750 3128 4425 
Q 3525 4100 3525 3541 
Q 3525 3141 3298 2862 
Q 3072 2584 2669 2484 
Q 3125 2378 3379 2068 
Q 3634 1759 3634 1313 
Q 3634 634 3220 271 
Q 2806 -91 2034 -91 
Q 1263 -91 848 271 
Q 434 634 434 1313 
Q 434 1759 690 2068 
Q 947 2378 1403 2484 
z
M 1172 3481 
Q 1172 3119 1398 2916 
Q 1625 2713 2034 2713 
Q 2441 2713 2670 2916 
Q 2900 3119 2900 3481 
Q 2900 3844 2670 4047 
Q 2441 4250 2034 4250 
Q 1625 4250 1398 4047 
Q 1172 3844 1172 3481 
z
" id="DejaVuSans-38" transform="scale(0.015625)"/>
       </defs>
       <use xlink:href="#DejaVuSans-2212"/>
       <use x="83.789062" xlink:href="#DejaVuSans-30"/>
       <use x="147.412109" xlink:href="#DejaVuSans-2e"/>
       <use x="179.199219" xlink:href="#DejaVuSans-38"/>
      </g>
     </g>
    </g>
    <g id="xtick_2">
     <g id="line2d_2">
      <g>
       <use style="stroke:#000000;stroke-width:0.8;" x="113.526421" xlink:href="#m8222480754" y="339.84"/>
      </g>
     </g>
     <g id="text_2">
      <!-- −0.6 -->
      <g transform="translate(101.385015 354.438438)scale(0.1 -0.1)">
       <defs>
        <path d="M 2113 2584 
Q 1688 2584 1439 2293 
Q 1191 2003 1191 1497 
Q 1191 994 1439 701 
Q 1688 409 2113 409 
Q 2538 409 2786 701 
Q 3034 994 3034 1497 
Q 3034 2003 2786 2293 
Q 2538 2584 2113 2584 
z
M 3366 4563 
L 3366 3988 
Q 3128 4100 2886 4159 
Q 2644 4219 2406 4219 
Q 1781 4219 1451 3797 
Q 1122 3375 1075 2522 
Q 1259 2794 1537 2939 
Q 1816 3084 2150 3084 
Q 2853 3084 3261 2657 
Q 3669 2231 3669 1497 
Q 3669 778 3244 343 
Q 2819 -91 2113 -91 
Q 1303 -91 875 529 
Q 447 1150 447 2328 
Q 447 3434 972 4092 
Q 1497 4750 2381 4750 
Q 2619 4750 2861 4703 
Q 3103 4656 3366 4563 
z
" id="DejaVuSans-36" transform="scale(0.015625)"/>
       </defs>
       <use xlink:href="#DejaVuSans-2212"/>
       <use x="83.789062" xlink:href="#DejaVuSans-30"/>
       <use x="147.412109" xlink:href="#DejaVuSans-2e"/>
       <use x="179.199219" xlink:href="#DejaVuSans-36"/>
      </g>
     </g>
    </g>
    <g id="xtick_3">
     <g id="line2d_3">
      <g>
       <use style="stroke:#000000;stroke-width:0.8;" x="169.757086" xlink:href="#m8222480754" y="339.84"/>
      </g>
     </g>
     <g id="text_3">
      <!-- −0.4 -->
      <g transform="translate(157.61568 354.438438)scale(0.1 -0.1)">
       <defs>
        <path d="M 2419 4116 
L 825 1625 
L 2419 1625 
L 2419 4116 
z
M 2253 4666 
L 3047 4666 
L 3047 1625 
L 3713 1625 
L 3713 1100 
L 3047 1100 
L 3047 0 
L 2419 0 
L 2419 1100 
L 313 1100 
L 313 1709 
L 2253 4666 
z
" id="DejaVuSans-34" transform="scale(0.015625)"/>
       </defs>
       <use xlink:href="#DejaVuSans-2212"/>
       <use x="83.789062" xlink:href="#DejaVuSans-30"/>
       <use x="147.412109" xlink:href="#DejaVuSans-2e"/>
       <use x="179.199219" xlink:href="#DejaVuSans-34"/>
      </g>
     </g>
    </g>
    <g id="xtick_4">
     <g id="line2d_4">
      <g>
       <use style="stroke:#000000;stroke-width:0.8;" x="225.98775" xlink:href="#m8222480754" y="339.84"/>
      </g>
     </g>
     <g id="text_4">
      <!-- −0.2 -->
      <g transform="translate(213.846344 354.438438)scale(0.1 -0.1)">
       <defs>
        <path d="M 1228 531 
L 3431 531 
L 3431 0 
L 469 0 
L 469 531 
Q 828 903 1448 1529 
Q 2069 2156 2228 2338 
Q 2531 2678 2651 2914 
Q 2772 3150 2772 3378 
Q 2772 3750 2511 3984 
Q 2250 4219 1831 4219 
Q 1534 4219 1204 4116 
Q 875 4013 500 3803 
L 500 4441 
Q 881 4594 1212 4672 
Q 1544 4750 1819 4750 
Q 2544 4750 2975 4387 
Q 3406 4025 3406 3419 
Q 3406 3131 3298 2873 
Q 3191 2616 2906 2266 
Q 2828 2175 2409 1742 
Q 1991 1309 1228 531 
z
" id="DejaVuSans-32" transform="scale(0.015625)"/>
       </defs>
       <use xlink:href="#DejaVuSans-2212"/>
       <use x="83.789062" xlink:href="#DejaVuSans-30"/>
       <use x="147.412109" xlink:href="#DejaVuSans-2e"/>
       <use x="179.199219" xlink:href="#DejaVuSans-32"/>
      </g>
     </g>
    </g>
    <g id="xtick_5">
     <g id="line2d_5">
      <g>
       <use style="stroke:#000000;stroke-width:0.8;" x="282.218415" xlink:href="#m8222480754" y="339.84"/>
      </g>
     </g>
     <g id="text_5">
      <!-- 0.0 -->
      <g transform="translate(274.266852 354.438438)scale(0.1 -0.1)">
       <use xlink:href="#DejaVuSans-30"/>
       <use x="63.623047" xlink:href="#DejaVuSans-2e"/>
       <use x="95.410156" xlink:href="#DejaVuSans-30"/>
      </g>
     </g>
    </g>
    <g id="xtick_6">
     <g id="line2d_6">
      <g>
       <use style="stroke:#000000;stroke-width:0.8;" x="338.449079" xlink:href="#m8222480754" y="339.84"/>
      </g>
     </g>
     <g id="text_6">
      <!-- 0.2 -->
      <g transform="translate(330.497517 354.438438)scale(0.1 -0.1)">
       <use xlink:href="#DejaVuSans-30"/>
       <use x="63.623047" xlink:href="#DejaVuSans-2e"/>
       <use x="95.410156" xlink:href="#DejaVuSans-32"/>
      </g>
     </g>
    </g>
    <g id="xtick_7">
     <g id="line2d_7">
      <g>
       <use style="stroke:#000000;stroke-width:0.8;" x="394.679744" xlink:href="#m8222480754" y="339.84"/>
      </g>
     </g>
     <g id="text_7">
      <!-- 0.4 -->
      <g transform="translate(386.728181 354.438438)scale(0.1 -0.1)">
       <use xlink:href="#DejaVuSans-30"/>
       <use x="63.623047" xlink:href="#DejaVuSans-2e"/>
       <use x="95.410156" xlink:href="#DejaVuSans-34"/>
      </g>
     </g>
    </g>
    <g id="xtick_8">
     <g id="line2d_8">
      <g>
       <use style="stroke:#000000;stroke-width:0.8;" x="450.910408" xlink:href="#m8222480754" y="339.84"/>
      </g>
     </g>
     <g id="text_8">
      <!-- 0.6 -->
      <g transform="translate(442.958846 354.438438)scale(0.1 -0.1)">
       <use xlink:href="#DejaVuSans-30"/>
       <use x="63.623047" xlink:href="#DejaVuSans-2e"/>
       <use x="95.410156" xlink:href="#DejaVuSans-36"/>
      </g>
     </g>
    </g>
    <g id="text_9">
     <!-- PCoA1 (33.87%) -->
     <g transform="translate(234.638281 368.116562)scale(0.1 -0.1)">
      <defs>
       <path d="M 1259 4147 
L 1259 2394 
L 2053 2394 
Q 2494 2394 2734 2622 
Q 2975 2850 2975 3272 
Q 2975 3691 2734 3919 
Q 2494 4147 2053 4147 
L 1259 4147 
z
M 628 4666 
L 2053 4666 
Q 2838 4666 3239 4311 
Q 3641 3956 3641 3272 
Q 3641 2581 3239 2228 
Q 2838 1875 2053 1875 
L 1259 1875 
L 1259 0 
L 628 0 
L 628 4666 
z
" id="DejaVuSans-50" transform="scale(0.015625)"/>
       <path d="M 4122 4306 
L 4122 3641 
Q 3803 3938 3442 4084 
Q 3081 4231 2675 4231 
Q 1875 4231 1450 3742 
Q 1025 3253 1025 2328 
Q 1025 1406 1450 917 
Q 1875 428 2675 428 
Q 3081 428 3442 575 
Q 3803 722 4122 1019 
L 4122 359 
Q 3791 134 3420 21 
Q 3050 -91 2638 -91 
Q 1578 -91 968 557 
Q 359 1206 359 2328 
Q 359 3453 968 4101 
Q 1578 4750 2638 4750 
Q 3056 4750 3426 4639 
Q 3797 4528 4122 4306 
z
" id="DejaVuSans-43" transform="scale(0.015625)"/>
       <path d="M 1959 3097 
Q 1497 3097 1228 2736 
Q 959 2375 959 1747 
Q 959 1119 1226 758 
Q 1494 397 1959 397 
Q 2419 397 2687 759 
Q 2956 1122 2956 1747 
Q 2956 2369 2687 2733 
Q 2419 3097 1959 3097 
z
M 1959 3584 
Q 2709 3584 3137 3096 
Q 3566 2609 3566 1747 
Q 3566 888 3137 398 
Q 2709 -91 1959 -91 
Q 1206 -91 779 398 
Q 353 888 353 1747 
Q 353 2609 779 3096 
Q 1206 3584 1959 3584 
z
" id="DejaVuSans-6f" transform="scale(0.015625)"/>
       <path d="M 2188 4044 
L 1331 1722 
L 3047 1722 
L 2188 4044 
z
M 1831 4666 
L 2547 4666 
L 4325 0 
L 3669 0 
L 3244 1197 
L 1141 1197 
L 716 0 
L 50 0 
L 1831 4666 
z
" id="DejaVuSans-41" transform="scale(0.015625)"/>
       <path d="M 794 531 
L 1825 531 
L 1825 4091 
L 703 3866 
L 703 4441 
L 1819 4666 
L 2450 4666 
L 2450 531 
L 3481 531 
L 3481 0 
L 794 0 
L 794 531 
z
" id="DejaVuSans-31" transform="scale(0.015625)"/>
       <path id="DejaVuSans-20" transform="scale(0.015625)"/>
       <path d="M 1984 4856 
Q 1566 4138 1362 3434 
Q 1159 2731 1159 2009 
Q 1159 1288 1364 580 
Q 1569 -128 1984 -844 
L 1484 -844 
Q 1016 -109 783 600 
Q 550 1309 550 2009 
Q 550 2706 781 3412 
Q 1013 4119 1484 4856 
L 1984 4856 
z
" id="DejaVuSans-28" transform="scale(0.015625)"/>
       <path d="M 2597 2516 
Q 3050 2419 3304 2112 
Q 3559 1806 3559 1356 
Q 3559 666 3084 287 
Q 2609 -91 1734 -91 
Q 1441 -91 1130 -33 
Q 819 25 488 141 
L 488 750 
Q 750 597 1062 519 
Q 1375 441 1716 441 
Q 2309 441 2620 675 
Q 2931 909 2931 1356 
Q 2931 1769 2642 2001 
Q 2353 2234 1838 2234 
L 1294 2234 
L 1294 2753 
L 1863 2753 
Q 2328 2753 2575 2939 
Q 2822 3125 2822 3475 
Q 2822 3834 2567 4026 
Q 2313 4219 1838 4219 
Q 1578 4219 1281 4162 
Q 984 4106 628 3988 
L 628 4550 
Q 988 4650 1302 4700 
Q 1616 4750 1894 4750 
Q 2613 4750 3031 4423 
Q 3450 4097 3450 3541 
Q 3450 3153 3228 2886 
Q 3006 2619 2597 2516 
z
" id="DejaVuSans-33" transform="scale(0.015625)"/>
       <path d="M 525 4666 
L 3525 4666 
L 3525 4397 
L 1831 0 
L 1172 0 
L 2766 4134 
L 525 4134 
L 525 4666 
z
" id="DejaVuSans-37" transform="scale(0.015625)"/>
       <path d="M 4653 2053 
Q 4381 2053 4226 1822 
Q 4072 1591 4072 1178 
Q 4072 772 4226 539 
Q 4381 306 4653 306 
Q 4919 306 5073 539 
Q 5228 772 5228 1178 
Q 5228 1588 5073 1820 
Q 4919 2053 4653 2053 
z
M 4653 2450 
Q 5147 2450 5437 2106 
Q 5728 1763 5728 1178 
Q 5728 594 5436 251 
Q 5144 -91 4653 -91 
Q 4153 -91 3862 251 
Q 3572 594 3572 1178 
Q 3572 1766 3864 2108 
Q 4156 2450 4653 2450 
z
M 1428 4353 
Q 1159 4353 1004 4120 
Q 850 3888 850 3481 
Q 850 3069 1003 2837 
Q 1156 2606 1428 2606 
Q 1700 2606 1854 2837 
Q 2009 3069 2009 3481 
Q 2009 3884 1853 4118 
Q 1697 4353 1428 4353 
z
M 4250 4750 
L 4750 4750 
L 1831 -91 
L 1331 -91 
L 4250 4750 
z
M 1428 4750 
Q 1922 4750 2215 4408 
Q 2509 4066 2509 3481 
Q 2509 2891 2217 2550 
Q 1925 2209 1428 2209 
Q 931 2209 642 2551 
Q 353 2894 353 3481 
Q 353 4063 643 4406 
Q 934 4750 1428 4750 
z
" id="DejaVuSans-25" transform="scale(0.015625)"/>
       <path d="M 513 4856 
L 1013 4856 
Q 1481 4119 1714 3412 
Q 1947 2706 1947 2009 
Q 1947 1309 1714 600 
Q 1481 -109 1013 -844 
L 513 -844 
Q 928 -128 1133 580 
Q 1338 1288 1338 2009 
Q 1338 2731 1133 3434 
Q 928 4138 513 4856 
z
" id="DejaVuSans-29" transform="scale(0.015625)"/>
      </defs>
      <use xlink:href="#DejaVuSans-50"/>
      <use x="60.302734" xlink:href="#DejaVuSans-43"/>
      <use x="130.126953" xlink:href="#DejaVuSans-6f"/>
      <use x="191.308594" xlink:href="#DejaVuSans-41"/>
      <use x="259.716797" xlink:href="#DejaVuSans-31"/>
      <use x="323.339844" xlink:href="#DejaVuSans-20"/>
      <use x="355.126953" xlink:href="#DejaVuSans-28"/>
      <use x="394.140625" xlink:href="#DejaVuSans-33"/>
      <use x="457.763672" xlink:href="#DejaVuSans-33"/>
      <use x="521.386719" xlink:href="#DejaVuSans-2e"/>
      <use x="553.173828" xlink:href="#DejaVuSans-38"/>
      <use x="616.796875" xlink:href="#DejaVuSans-37"/>
      <use x="680.419922" xlink:href="#DejaVuSans-25"/>
      <use x="775.439453" xlink:href="#DejaVuSans-29"/>
     </g>
    </g>
   </g>
   <g id="matplotlib.axis_2">
    <g id="ytick_1">
     <g id="line2d_9">
      <defs>
       <path d="M 0 0 
L -3.5 0 
" id="mfcf7b01069" style="stroke:#000000;stroke-width:0.8;"/>
      </defs>
      <g>
       <use style="stroke:#000000;stroke-width:0.8;" x="52.160938" xlink:href="#mfcf7b01069" y="304.754126"/>
      </g>
     </g>
     <g id="text_10">
      <!-- −0.4 -->
      <g transform="translate(20.878125 308.553345)scale(0.1 -0.1)">
       <use xlink:href="#DejaVuSans-2212"/>
       <use x="83.789062" xlink:href="#DejaVuSans-30"/>
       <use x="147.412109" xlink:href="#DejaVuSans-2e"/>
       <use x="179.199219" xlink:href="#DejaVuSans-34"/>
      </g>
     </g>
    </g>
    <g id="ytick_2">
     <g id="line2d_10">
      <g>
       <use style="stroke:#000000;stroke-width:0.8;" x="52.160938" xlink:href="#mfcf7b01069" y="238.819071"/>
      </g>
     </g>
     <g id="text_11">
      <!-- −0.2 -->
      <g transform="translate(20.878125 242.61829)scale(0.1 -0.1)">
       <use xlink:href="#DejaVuSans-2212"/>
       <use x="83.789062" xlink:href="#DejaVuSans-30"/>
       <use x="147.412109" xlink:href="#DejaVuSans-2e"/>
       <use x="179.199219" xlink:href="#DejaVuSans-32"/>
      </g>
     </g>
    </g>
    <g id="ytick_3">
     <g id="line2d_11">
      <g>
       <use style="stroke:#000000;stroke-width:0.8;" x="52.160938" xlink:href="#mfcf7b01069" y="172.884017"/>
      </g>
     </g>
     <g id="text_12">
      <!-- 0.0 -->
      <g transform="translate(29.257812 176.683235)scale(0.1 -0.1)">
       <use xlink:href="#DejaVuSans-30"/>
       <use x="63.623047" xlink:href="#DejaVuSans-2e"/>
       <use x="95.410156" xlink:href="#DejaVuSans-30"/>
      </g>
     </g>
    </g>
    <g id="ytick_4">
     <g id="line2d_12">
      <g>
       <use style="stroke:#000000;stroke-width:0.8;" x="52.160938" xlink:href="#mfcf7b01069" y="106.948962"/>
      </g>
     </g>
     <g id="text_13">
      <!-- 0.2 -->
      <g transform="translate(29.257812 110.74818)scale(0.1 -0.1)">
       <use xlink:href="#DejaVuSans-30"/>
       <use x="63.623047" xlink:href="#DejaVuSans-2e"/>
       <use x="95.410156" xlink:href="#DejaVuSans-32"/>
      </g>
     </g>
    </g>
    <g id="ytick_5">
     <g id="line2d_13">
      <g>
       <use style="stroke:#000000;stroke-width:0.8;" x="52.160938" xlink:href="#mfcf7b01069" y="41.013907"/>
      </g>
     </g>
     <g id="text_14">
      <!-- 0.4 -->
      <g transform="translate(29.257812 44.813126)scale(0.1 -0.1)">
       <use xlink:href="#DejaVuSans-30"/>
       <use x="63.623047" xlink:href="#DejaVuSans-2e"/>
       <use x="95.410156" xlink:href="#DejaVuSans-34"/>
      </g>
     </g>
    </g>
    <g id="text_15">
     <!-- PCoA2 (15.87%) -->
     <g transform="translate(14.798437 214.242656)rotate(-90)scale(0.1 -0.1)">
      <defs>
       <path d="M 691 4666 
L 3169 4666 
L 3169 4134 
L 1269 4134 
L 1269 2991 
Q 1406 3038 1543 3061 
Q 1681 3084 1819 3084 
Q 2600 3084 3056 2656 
Q 3513 2228 3513 1497 
Q 3513 744 3044 326 
Q 2575 -91 1722 -91 
Q 1428 -91 1123 -41 
Q 819 9 494 109 
L 494 744 
Q 775 591 1075 516 
Q 1375 441 1709 441 
Q 2250 441 2565 725 
Q 2881 1009 2881 1497 
Q 2881 1984 2565 2268 
Q 2250 2553 1709 2553 
Q 1456 2553 1204 2497 
Q 953 2441 691 2322 
L 691 4666 
z
" id="DejaVuSans-35" transform="scale(0.015625)"/>
      </defs>
      <use xlink:href="#DejaVuSans-50"/>
      <use x="60.302734" xlink:href="#DejaVuSans-43"/>
      <use x="130.126953" xlink:href="#DejaVuSans-6f"/>
      <use x="191.308594" xlink:href="#DejaVuSans-41"/>
      <use x="259.716797" xlink:href="#DejaVuSans-32"/>
      <use x="323.339844" xlink:href="#DejaVuSans-20"/>
      <use x="355.126953" xlink:href="#DejaVuSans-28"/>
      <use x="394.140625" xlink:href="#DejaVuSans-31"/>
      <use x="457.763672" xlink:href="#DejaVuSans-35"/>
      <use x="521.386719" xlink:href="#DejaVuSans-2e"/>
      <use x="553.173828" xlink:href="#DejaVuSans-38"/>
      <use x="616.796875" xlink:href="#DejaVuSans-37"/>
      <use x="680.419922" xlink:href="#DejaVuSans-25"/>
      <use x="775.439453" xlink:href="#DejaVuSans-29"/>
     </g>
    </g>
   </g>
   <g id="patch_5">
    <path d="M 52.160938 339.84 
L 52.160938 7.2 
" style="fill:none;stroke:#000000;stroke-linecap:square;stroke-linejoin:miter;stroke-width:0.8;"/>
   </g>
   <g id="patch_6">
    <path d="M 498.560937 339.84 
L 498.560937 7.2 
" style="fill:none;stroke:#000000;stroke-linecap:square;stroke-linejoin:miter;stroke-width:0.8;"/>
   </g>
   <g id="patch_7">
    <path d="M 52.160938 339.84 
L 498.560937 339.84 
" style="fill:none;stroke:#000000;stroke-linecap:square;stroke-linejoin:miter;stroke-width:0.8;"/>
   </g>
   <g id="patch_8">
    <path d="M 52.160938 7.2 
L 498.560937 7.2 
" style="fill:none;stroke:#000000;stroke-linecap:square;stroke-linejoin:miter;stroke-width:0.8;"/>
   </g>
   <g id="text_16">
    <!-- Permanova p-value : 0.524 -->
    <g transform="translate(142.24039 76.001961)scale(0.1 -0.1)">
     <defs>
      <path d="M 3597 1894 
L 3597 1613 
L 953 1613 
Q 991 1019 1311 708 
Q 1631 397 2203 397 
Q 2534 397 2845 478 
Q 3156 559 3463 722 
L 3463 178 
Q 3153 47 2828 -22 
Q 2503 -91 2169 -91 
Q 1331 -91 842 396 
Q 353 884 353 1716 
Q 353 2575 817 3079 
Q 1281 3584 2069 3584 
Q 2775 3584 3186 3129 
Q 3597 2675 3597 1894 
z
M 3022 2063 
Q 3016 2534 2758 2815 
Q 2500 3097 2075 3097 
Q 1594 3097 1305 2825 
Q 1016 2553 972 2059 
L 3022 2063 
z
" id="DejaVuSans-65" transform="scale(0.015625)"/>
      <path d="M 2631 2963 
Q 2534 3019 2420 3045 
Q 2306 3072 2169 3072 
Q 1681 3072 1420 2755 
Q 1159 2438 1159 1844 
L 1159 0 
L 581 0 
L 581 3500 
L 1159 3500 
L 1159 2956 
Q 1341 3275 1631 3429 
Q 1922 3584 2338 3584 
Q 2397 3584 2469 3576 
Q 2541 3569 2628 3553 
L 2631 2963 
z
" id="DejaVuSans-72" transform="scale(0.015625)"/>
      <path d="M 3328 2828 
Q 3544 3216 3844 3400 
Q 4144 3584 4550 3584 
Q 5097 3584 5394 3201 
Q 5691 2819 5691 2113 
L 5691 0 
L 5113 0 
L 5113 2094 
Q 5113 2597 4934 2840 
Q 4756 3084 4391 3084 
Q 3944 3084 3684 2787 
Q 3425 2491 3425 1978 
L 3425 0 
L 2847 0 
L 2847 2094 
Q 2847 2600 2669 2842 
Q 2491 3084 2119 3084 
Q 1678 3084 1418 2786 
Q 1159 2488 1159 1978 
L 1159 0 
L 581 0 
L 581 3500 
L 1159 3500 
L 1159 2956 
Q 1356 3278 1631 3431 
Q 1906 3584 2284 3584 
Q 2666 3584 2933 3390 
Q 3200 3197 3328 2828 
z
" id="DejaVuSans-6d" transform="scale(0.015625)"/>
      <path d="M 2194 1759 
Q 1497 1759 1228 1600 
Q 959 1441 959 1056 
Q 959 750 1161 570 
Q 1363 391 1709 391 
Q 2188 391 2477 730 
Q 2766 1069 2766 1631 
L 2766 1759 
L 2194 1759 
z
M 3341 1997 
L 3341 0 
L 2766 0 
L 2766 531 
Q 2569 213 2275 61 
Q 1981 -91 1556 -91 
Q 1019 -91 701 211 
Q 384 513 384 1019 
Q 384 1609 779 1909 
Q 1175 2209 1959 2209 
L 2766 2209 
L 2766 2266 
Q 2766 2663 2505 2880 
Q 2244 3097 1772 3097 
Q 1472 3097 1187 3025 
Q 903 2953 641 2809 
L 641 3341 
Q 956 3463 1253 3523 
Q 1550 3584 1831 3584 
Q 2591 3584 2966 3190 
Q 3341 2797 3341 1997 
z
" id="DejaVuSans-61" transform="scale(0.015625)"/>
      <path d="M 3513 2113 
L 3513 0 
L 2938 0 
L 2938 2094 
Q 2938 2591 2744 2837 
Q 2550 3084 2163 3084 
Q 1697 3084 1428 2787 
Q 1159 2491 1159 1978 
L 1159 0 
L 581 0 
L 581 3500 
L 1159 3500 
L 1159 2956 
Q 1366 3272 1645 3428 
Q 1925 3584 2291 3584 
Q 2894 3584 3203 3211 
Q 3513 2838 3513 2113 
z
" id="DejaVuSans-6e" transform="scale(0.015625)"/>
      <path d="M 191 3500 
L 800 3500 
L 1894 563 
L 2988 3500 
L 3597 3500 
L 2284 0 
L 1503 0 
L 191 3500 
z
" id="DejaVuSans-76" transform="scale(0.015625)"/>
      <path d="M 1159 525 
L 1159 -1331 
L 581 -1331 
L 581 3500 
L 1159 3500 
L 1159 2969 
Q 1341 3281 1617 3432 
Q 1894 3584 2278 3584 
Q 2916 3584 3314 3078 
Q 3713 2572 3713 1747 
Q 3713 922 3314 415 
Q 2916 -91 2278 -91 
Q 1894 -91 1617 61 
Q 1341 213 1159 525 
z
M 3116 1747 
Q 3116 2381 2855 2742 
Q 2594 3103 2138 3103 
Q 1681 3103 1420 2742 
Q 1159 2381 1159 1747 
Q 1159 1113 1420 752 
Q 1681 391 2138 391 
Q 2594 391 2855 752 
Q 3116 1113 3116 1747 
z
" id="DejaVuSans-70" transform="scale(0.015625)"/>
      <path d="M 313 2009 
L 1997 2009 
L 1997 1497 
L 313 1497 
L 313 2009 
z
" id="DejaVuSans-2d" transform="scale(0.015625)"/>
      <path d="M 603 4863 
L 1178 4863 
L 1178 0 
L 603 0 
L 603 4863 
z
" id="DejaVuSans-6c" transform="scale(0.015625)"/>
      <path d="M 544 1381 
L 544 3500 
L 1119 3500 
L 1119 1403 
Q 1119 906 1312 657 
Q 1506 409 1894 409 
Q 2359 409 2629 706 
Q 2900 1003 2900 1516 
L 2900 3500 
L 3475 3500 
L 3475 0 
L 2900 0 
L 2900 538 
Q 2691 219 2414 64 
Q 2138 -91 1772 -91 
Q 1169 -91 856 284 
Q 544 659 544 1381 
z
M 1991 3584 
L 1991 3584 
z
" id="DejaVuSans-75" transform="scale(0.015625)"/>
      <path d="M 750 794 
L 1409 794 
L 1409 0 
L 750 0 
L 750 794 
z
M 750 3309 
L 1409 3309 
L 1409 2516 
L 750 2516 
L 750 3309 
z
" id="DejaVuSans-3a" transform="scale(0.015625)"/>
     </defs>
     <use xlink:href="#DejaVuSans-50"/>
     <use x="56.677734" xlink:href="#DejaVuSans-65"/>
     <use x="118.201172" xlink:href="#DejaVuSans-72"/>
     <use x="157.564453" xlink:href="#DejaVuSans-6d"/>
     <use x="254.976562" xlink:href="#DejaVuSans-61"/>
     <use x="316.255859" xlink:href="#DejaVuSans-6e"/>
     <use x="379.634766" xlink:href="#DejaVuSans-6f"/>
     <use x="440.816406" xlink:href="#DejaVuSans-76"/>
     <use x="499.996094" xlink:href="#DejaVuSans-61"/>
     <use x="561.275391" xlink:href="#DejaVuSans-20"/>
     <use x="593.0625" xlink:href="#DejaVuSans-70"/>
     <use x="656.539062" xlink:href="#DejaVuSans-2d"/>
     <use x="689.998047" xlink:href="#DejaVuSans-76"/>
     <use x="749.177734" xlink:href="#DejaVuSans-61"/>
     <use x="810.457031" xlink:href="#DejaVuSans-6c"/>
     <use x="838.240234" xlink:href="#DejaVuSans-75"/>
     <use x="901.619141" xlink:href="#DejaVuSans-65"/>
     <use x="963.142578" xlink:href="#DejaVuSans-20"/>
     <use x="994.929688" xlink:href="#DejaVuSans-3a"/>
     <use x="1028.621094" xlink:href="#DejaVuSans-20"/>
     <use x="1060.408203" xlink:href="#DejaVuSans-30"/>
     <use x="1124.03125" xlink:href="#DejaVuSans-2e"/>
     <use x="1155.818359" xlink:href="#DejaVuSans-35"/>
     <use x="1219.441406" xlink:href="#DejaVuSans-32"/>
     <use x="1283.064453" xlink:href="#DejaVuSans-34"/>
    </g>
   </g>
   <g id="legend_1">
    <g id="patch_9">
     <path d="M 59.160938 59.234375 
L 97.523438 59.234375 
Q 99.523438 59.234375 99.523438 57.234375 
L 99.523438 14.2 
Q 99.523438 12.2 97.523438 12.2 
L 59.160938 12.2 
Q 57.160938 12.2 57.160938 14.2 
L 57.160938 57.234375 
Q 57.160938 59.234375 59.160938 59.234375 
z
" style="fill:#ffffff;opacity:0.8;stroke:#cccccc;stroke-linejoin:miter;"/>
    </g>
    <g id="text_17">
     <!-- cluster -->
     <g transform="translate(61.338281 23.798437)scale(0.1 -0.1)">
      <defs>
       <path d="M 3122 3366 
L 3122 2828 
Q 2878 2963 2633 3030 
Q 2388 3097 2138 3097 
Q 1578 3097 1268 2742 
Q 959 2388 959 1747 
Q 959 1106 1268 751 
Q 1578 397 2138 397 
Q 2388 397 2633 464 
Q 2878 531 3122 666 
L 3122 134 
Q 2881 22 2623 -34 
Q 2366 -91 2075 -91 
Q 1284 -91 818 406 
Q 353 903 353 1747 
Q 353 2603 823 3093 
Q 1294 3584 2113 3584 
Q 2378 3584 2631 3529 
Q 2884 3475 3122 3366 
z
" id="DejaVuSans-63" transform="scale(0.015625)"/>
       <path d="M 2834 3397 
L 2834 2853 
Q 2591 2978 2328 3040 
Q 2066 3103 1784 3103 
Q 1356 3103 1142 2972 
Q 928 2841 928 2578 
Q 928 2378 1081 2264 
Q 1234 2150 1697 2047 
L 1894 2003 
Q 2506 1872 2764 1633 
Q 3022 1394 3022 966 
Q 3022 478 2636 193 
Q 2250 -91 1575 -91 
Q 1294 -91 989 -36 
Q 684 19 347 128 
L 347 722 
Q 666 556 975 473 
Q 1284 391 1588 391 
Q 1994 391 2212 530 
Q 2431 669 2431 922 
Q 2431 1156 2273 1281 
Q 2116 1406 1581 1522 
L 1381 1569 
Q 847 1681 609 1914 
Q 372 2147 372 2553 
Q 372 3047 722 3315 
Q 1072 3584 1716 3584 
Q 2034 3584 2315 3537 
Q 2597 3491 2834 3397 
z
" id="DejaVuSans-73" transform="scale(0.015625)"/>
       <path d="M 1172 4494 
L 1172 3500 
L 2356 3500 
L 2356 3053 
L 1172 3053 
L 1172 1153 
Q 1172 725 1289 603 
Q 1406 481 1766 481 
L 2356 481 
L 2356 0 
L 1766 0 
Q 1100 0 847 248 
Q 594 497 594 1153 
L 594 3053 
L 172 3053 
L 172 3500 
L 594 3500 
L 594 4494 
L 1172 4494 
z
" id="DejaVuSans-74" transform="scale(0.015625)"/>
      </defs>
      <use xlink:href="#DejaVuSans-63"/>
      <use x="54.980469" xlink:href="#DejaVuSans-6c"/>
      <use x="82.763672" xlink:href="#DejaVuSans-75"/>
      <use x="146.142578" xlink:href="#DejaVuSans-73"/>
      <use x="198.242188" xlink:href="#DejaVuSans-74"/>
      <use x="237.451172" xlink:href="#DejaVuSans-65"/>
      <use x="298.974609" xlink:href="#DejaVuSans-72"/>
     </g>
    </g>
    <g id="PathCollection_6">
     <defs>
      <path d="M 0 3 
C 0.795609 3 1.55874 2.683901 2.12132 2.12132 
C 2.683901 1.55874 3 0.795609 3 0 
C 3 -0.795609 2.683901 -1.55874 2.12132 -2.12132 
C 1.55874 -2.683901 0.795609 -3 0 -3 
C -0.795609 -3 -1.55874 -2.683901 -2.12132 -2.12132 
C -2.683901 -1.55874 -3 -0.795609 -3 0 
C -3 0.795609 -2.683901 1.55874 -2.12132 2.12132 
C -1.55874 2.683901 -0.795609 3 0 3 
z
" id="m5c6f688185" style="stroke:#fc8d62;"/>
     </defs>
     <g>
      <use style="fill:#fc8d62;stroke:#fc8d62;" x="71.160938" xlink:href="#m5c6f688185" y="35.851562"/>
     </g>
    </g>
    <g id="text_18">
     <!-- 2 -->
     <g transform="translate(89.160938 38.476562)scale(0.1 -0.1)">
      <use xlink:href="#DejaVuSans-32"/>
     </g>
    </g>
    <g id="PathCollection_7">
     <defs>
      <path d="M 0 3 
C 0.795609 3 1.55874 2.683901 2.12132 2.12132 
C 2.683901 1.55874 3 0.795609 3 0 
C 3 -0.795609 2.683901 -1.55874 2.12132 -2.12132 
C 1.55874 -2.683901 0.795609 -3 0 -3 
C -0.795609 -3 -1.55874 -2.683901 -2.12132 -2.12132 
C -2.683901 -1.55874 -3 -0.795609 -3 0 
C -3 0.795609 -2.683901 1.55874 -2.12132 2.12132 
C -1.55874 2.683901 -0.795609 3 0 3 
z
" id="m2f0947b8b6" style="stroke:#e78ac3;"/>
     </defs>
     <g>
      <use style="fill:#e78ac3;stroke:#e78ac3;" x="71.160938" xlink:href="#m2f0947b8b6" y="50.529688"/>
     </g>
    </g>
    <g id="text_19">
     <!-- 4 -->
     <g transform="translate(89.160938 53.154688)scale(0.1 -0.1)">
      <use xlink:href="#DejaVuSans-34"/>
     </g>
    </g>
   </g>
  </g>
 </g>
 <defs>
  <clipPath id="pb9512f2b1e">
   <rect height="332.64" width="446.4" x="52.160938" y="7.2"/>
  </clipPath>
 </defs>
</svg>
