<?xml version="1.0" encoding="utf-8" standalone="no"?>
<!DOCTYPE svg PUBLIC "-//W3C//DTD SVG 1.1//EN"
  "http://www.w3.org/Graphics/SVG/1.1/DTD/svg11.dtd">
<svg height="377.39625pt" version="1.1" viewBox="0 0 505.760937 377.39625" width="505.760937pt" xmlns="http://www.w3.org/2000/svg" xmlns:xlink="http://www.w3.org/1999/xlink">
 <metadata>
  <rdf:RDF xmlns:cc="http://creativecommons.org/ns#" xmlns:dc="http://purl.org/dc/elements/1.1/" xmlns:rdf="http://www.w3.org/1999/02/22-rdf-syntax-ns#">
   <cc:Work>
    <dc:type rdf:resource="http://purl.org/dc/dcmitype/StillImage"/>
    <dc:date>2023-09-11T09:37:30.671297</dc:date>
    <dc:format>image/svg+xml</dc:format>
    <dc:creator>
     <cc:Agent>
      <dc:title>Matplotlib v3.4.3, https://matplotlib.org/</dc:title>
     </cc:Agent>
    </dc:creator>
   </cc:Work>
  </rdf:RDF>
 </metadata>
 <defs>
  <style type="text/css">*{stroke-linecap:butt;stroke-linejoin:round;}</style>
 </defs>
 <g id="figure_1">
  <g id="patch_1">
   <path d="M 0 377.39625 
L 505.760937 377.39625 
L 505.760937 0 
L 0 0 
z
" style="fill:#ffffff;"/>
  </g>
  <g id="axes_1">
   <g id="patch_2">
    <path d="M 52.160938 339.84 
L 498.560937 339.84 
L 498.560937 7.2 
L 52.160938 7.2 
z
" style="fill:#ffffff;"/>
   </g>
   <g id="PathCollection_1">
    <defs>
     <path d="M 0 3 
C 0.795609 3 1.55874 2.683901 2.12132 2.12132 
C 2.683901 1.55874 3 0.795609 3 -0 
C 3 -0.795609 2.683901 -1.55874 2.12132 -2.12132 
C 1.55874 -2.683901 0.795609 -3 0 -3 
C -0.795609 -3 -1.55874 -2.683901 -2.12132 -2.12132 
C -2.683901 -1.55874 -3 -0.795609 -3 0 
C -3 0.795609 -2.683901 1.55874 -2.12132 2.12132 
C -1.55874 2.683901 -0.795609 3 0 3 
z
" id="C0_0_788c9fb584"/>
    </defs>
    <g clip-path="url(#p9ba408bf39)">
     <use style="fill:#8da0cb;stroke:#ffffff;stroke-width:0.48;" x="247.917428" xlink:href="#C0_0_788c9fb584" y="118.655873"/>
    </g>
    <g clip-path="url(#p9ba408bf39)">
     <use style="fill:#e78ac3;stroke:#ffffff;stroke-width:0.48;" x="241.223034" xlink:href="#C0_0_788c9fb584" y="199.077634"/>
    </g>
    <g clip-path="url(#p9ba408bf39)">
     <use style="fill:#8da0cb;stroke:#ffffff;stroke-width:0.48;" x="290.55484" xlink:href="#C0_0_788c9fb584" y="143.977161"/>
    </g>
    <g clip-path="url(#p9ba408bf39)">
     <use style="fill:#e78ac3;stroke:#ffffff;stroke-width:0.48;" x="218.595435" xlink:href="#C0_0_788c9fb584" y="223.580252"/>
    </g>
    <g clip-path="url(#p9ba408bf39)">
     <use style="fill:#8da0cb;stroke:#ffffff;stroke-width:0.48;" x="272.678525" xlink:href="#C0_0_788c9fb584" y="161.962463"/>
    </g>
    <g clip-path="url(#p9ba408bf39)">
     <use style="fill:#e78ac3;stroke:#ffffff;stroke-width:0.48;" x="341.515214" xlink:href="#C0_0_788c9fb584" y="158.802824"/>
    </g>
    <g clip-path="url(#p9ba408bf39)">
     <use style="fill:#8da0cb;stroke:#ffffff;stroke-width:0.48;" x="204.412078" xlink:href="#C0_0_788c9fb584" y="120.926701"/>
    </g>
    <g clip-path="url(#p9ba408bf39)">
     <use style="fill:#e78ac3;stroke:#ffffff;stroke-width:0.48;" x="257.325542" xlink:href="#C0_0_788c9fb584" y="119.241475"/>
    </g>
    <g clip-path="url(#p9ba408bf39)">
     <use style="fill:#8da0cb;stroke:#ffffff;stroke-width:0.48;" x="261.63797" xlink:href="#C0_0_788c9fb584" y="139.298744"/>
    </g>
    <g clip-path="url(#p9ba408bf39)">
     <use style="fill:#8da0cb;stroke:#ffffff;stroke-width:0.48;" x="201.754864" xlink:href="#C0_0_788c9fb584" y="168.114341"/>
    </g>
    <g clip-path="url(#p9ba408bf39)">
     <use style="fill:#e78ac3;stroke:#ffffff;stroke-width:0.48;" x="301.135459" xlink:href="#C0_0_788c9fb584" y="117.520951"/>
    </g>
    <g clip-path="url(#p9ba408bf39)">
     <use style="fill:#8da0cb;stroke:#ffffff;stroke-width:0.48;" x="173.4884" xlink:href="#C0_0_788c9fb584" y="105.114552"/>
    </g>
    <g clip-path="url(#p9ba408bf39)">
     <use style="fill:#e78ac3;stroke:#ffffff;stroke-width:0.48;" x="226.059911" xlink:href="#C0_0_788c9fb584" y="212.207883"/>
    </g>
    <g clip-path="url(#p9ba408bf39)">
     <use style="fill:#e78ac3;stroke:#ffffff;stroke-width:0.48;" x="196.15924" xlink:href="#C0_0_788c9fb584" y="261.522093"/>
    </g>
    <g clip-path="url(#p9ba408bf39)">
     <use style="fill:#8da0cb;stroke:#ffffff;stroke-width:0.48;" x="273.368438" xlink:href="#C0_0_788c9fb584" y="102.974077"/>
    </g>
    <g clip-path="url(#p9ba408bf39)">
     <use style="fill:#e78ac3;stroke:#ffffff;stroke-width:0.48;" x="142.625113" xlink:href="#C0_0_788c9fb584" y="138.12206"/>
    </g>
    <g clip-path="url(#p9ba408bf39)">
     <use style="fill:#8da0cb;stroke:#ffffff;stroke-width:0.48;" x="262.677127" xlink:href="#C0_0_788c9fb584" y="126.192919"/>
    </g>
    <g clip-path="url(#p9ba408bf39)">
     <use style="fill:#e78ac3;stroke:#ffffff;stroke-width:0.48;" x="214.294971" xlink:href="#C0_0_788c9fb584" y="100.581705"/>
    </g>
    <g clip-path="url(#p9ba408bf39)">
     <use style="fill:#8da0cb;stroke:#ffffff;stroke-width:0.48;" x="284.93716" xlink:href="#C0_0_788c9fb584" y="189.931818"/>
    </g>
    <g clip-path="url(#p9ba408bf39)">
     <use style="fill:#8da0cb;stroke:#ffffff;stroke-width:0.48;" x="285.565561" xlink:href="#C0_0_788c9fb584" y="121.86678"/>
    </g>
    <g clip-path="url(#p9ba408bf39)">
     <use style="fill:#8da0cb;stroke:#ffffff;stroke-width:0.48;" x="263.467303" xlink:href="#C0_0_788c9fb584" y="138.602388"/>
    </g>
    <g clip-path="url(#p9ba408bf39)">
     <use style="fill:#8da0cb;stroke:#ffffff;stroke-width:0.48;" x="300.280827" xlink:href="#C0_0_788c9fb584" y="157.068964"/>
    </g>
    <g clip-path="url(#p9ba408bf39)">
     <use style="fill:#8da0cb;stroke:#ffffff;stroke-width:0.48;" x="271.551464" xlink:href="#C0_0_788c9fb584" y="127.282053"/>
    </g>
    <g clip-path="url(#p9ba408bf39)">
     <use style="fill:#8da0cb;stroke:#ffffff;stroke-width:0.48;" x="247.172569" xlink:href="#C0_0_788c9fb584" y="218.981853"/>
    </g>
    <g clip-path="url(#p9ba408bf39)">
     <use style="fill:#e78ac3;stroke:#ffffff;stroke-width:0.48;" x="353.845772" xlink:href="#C0_0_788c9fb584" y="188.276977"/>
    </g>
    <g clip-path="url(#p9ba408bf39)">
     <use style="fill:#8da0cb;stroke:#ffffff;stroke-width:0.48;" x="330.364567" xlink:href="#C0_0_788c9fb584" y="117.159629"/>
    </g>
    <g clip-path="url(#p9ba408bf39)">
     <use style="fill:#8da0cb;stroke:#ffffff;stroke-width:0.48;" x="351.348856" xlink:href="#C0_0_788c9fb584" y="204.178401"/>
    </g>
    <g clip-path="url(#p9ba408bf39)">
     <use style="fill:#8da0cb;stroke:#ffffff;stroke-width:0.48;" x="359.133976" xlink:href="#C0_0_788c9fb584" y="183.617031"/>
    </g>
    <g clip-path="url(#p9ba408bf39)">
     <use style="fill:#e78ac3;stroke:#ffffff;stroke-width:0.48;" x="369.380565" xlink:href="#C0_0_788c9fb584" y="179.576142"/>
    </g>
    <g clip-path="url(#p9ba408bf39)">
     <use style="fill:#e78ac3;stroke:#ffffff;stroke-width:0.48;" x="282.653351" xlink:href="#C0_0_788c9fb584" y="131.49586"/>
    </g>
    <g clip-path="url(#p9ba408bf39)">
     <use style="fill:#e78ac3;stroke:#ffffff;stroke-width:0.48;" x="288.209988" xlink:href="#C0_0_788c9fb584" y="143.321782"/>
    </g>
    <g clip-path="url(#p9ba408bf39)">
     <use style="fill:#8da0cb;stroke:#ffffff;stroke-width:0.48;" x="254.47549" xlink:href="#C0_0_788c9fb584" y="232.184232"/>
    </g>
    <g clip-path="url(#p9ba408bf39)">
     <use style="fill:#e78ac3;stroke:#ffffff;stroke-width:0.48;" x="238.088128" xlink:href="#C0_0_788c9fb584" y="131.132221"/>
    </g>
    <g clip-path="url(#p9ba408bf39)">
     <use style="fill:#e78ac3;stroke:#ffffff;stroke-width:0.48;" x="166.894046" xlink:href="#C0_0_788c9fb584" y="171.545893"/>
    </g>
    <g clip-path="url(#p9ba408bf39)">
     <use style="fill:#e78ac3;stroke:#ffffff;stroke-width:0.48;" x="189.705379" xlink:href="#C0_0_788c9fb584" y="111.348706"/>
    </g>
    <g clip-path="url(#p9ba408bf39)">
     <use style="fill:#8da0cb;stroke:#ffffff;stroke-width:0.48;" x="333.939892" xlink:href="#C0_0_788c9fb584" y="139.202085"/>
    </g>
    <g clip-path="url(#p9ba408bf39)">
     <use style="fill:#8da0cb;stroke:#ffffff;stroke-width:0.48;" x="283.212435" xlink:href="#C0_0_788c9fb584" y="244.126042"/>
    </g>
    <g clip-path="url(#p9ba408bf39)">
     <use style="fill:#8da0cb;stroke:#ffffff;stroke-width:0.48;" x="348.100912" xlink:href="#C0_0_788c9fb584" y="202.471668"/>
    </g>
    <g clip-path="url(#p9ba408bf39)">
     <use style="fill:#8da0cb;stroke:#ffffff;stroke-width:0.48;" x="230.170634" xlink:href="#C0_0_788c9fb584" y="124.396802"/>
    </g>
    <g clip-path="url(#p9ba408bf39)">
     <use style="fill:#8da0cb;stroke:#ffffff;stroke-width:0.48;" x="211.105249" xlink:href="#C0_0_788c9fb584" y="296.046629"/>
    </g>
    <g clip-path="url(#p9ba408bf39)">
     <use style="fill:#e78ac3;stroke:#ffffff;stroke-width:0.48;" x="343.763213" xlink:href="#C0_0_788c9fb584" y="178.222614"/>
    </g>
    <g clip-path="url(#p9ba408bf39)">
     <use style="fill:#e78ac3;stroke:#ffffff;stroke-width:0.48;" x="335.590535" xlink:href="#C0_0_788c9fb584" y="188.914907"/>
    </g>
    <g clip-path="url(#p9ba408bf39)">
     <use style="fill:#8da0cb;stroke:#ffffff;stroke-width:0.48;" x="345.236034" xlink:href="#C0_0_788c9fb584" y="177.017958"/>
    </g>
    <g clip-path="url(#p9ba408bf39)">
     <use style="fill:#8da0cb;stroke:#ffffff;stroke-width:0.48;" x="339.442809" xlink:href="#C0_0_788c9fb584" y="179.585498"/>
    </g>
    <g clip-path="url(#p9ba408bf39)">
     <use style="fill:#8da0cb;stroke:#ffffff;stroke-width:0.48;" x="252.402827" xlink:href="#C0_0_788c9fb584" y="136.949309"/>
    </g>
    <g clip-path="url(#p9ba408bf39)">
     <use style="fill:#e78ac3;stroke:#ffffff;stroke-width:0.48;" x="381.820506" xlink:href="#C0_0_788c9fb584" y="179.083243"/>
    </g>
    <g clip-path="url(#p9ba408bf39)">
     <use style="fill:#8da0cb;stroke:#ffffff;stroke-width:0.48;" x="387.995345" xlink:href="#C0_0_788c9fb584" y="179.790857"/>
    </g>
    <g clip-path="url(#p9ba408bf39)">
     <use style="fill:#8da0cb;stroke:#ffffff;stroke-width:0.48;" x="288.816066" xlink:href="#C0_0_788c9fb584" y="159.117737"/>
    </g>
    <g clip-path="url(#p9ba408bf39)">
     <use style="fill:#8da0cb;stroke:#ffffff;stroke-width:0.48;" x="374.352195" xlink:href="#C0_0_788c9fb584" y="168.4653"/>
    </g>
    <g clip-path="url(#p9ba408bf39)">
     <use style="fill:#e78ac3;stroke:#ffffff;stroke-width:0.48;" x="333.490418" xlink:href="#C0_0_788c9fb584" y="147.718742"/>
    </g>
    <g clip-path="url(#p9ba408bf39)">
     <use style="fill:#8da0cb;stroke:#ffffff;stroke-width:0.48;" x="278.192333" xlink:href="#C0_0_788c9fb584" y="135.80909"/>
    </g>
    <g clip-path="url(#p9ba408bf39)">
     <use style="fill:#8da0cb;stroke:#ffffff;stroke-width:0.48;" x="241.406743" xlink:href="#C0_0_788c9fb584" y="131.921558"/>
    </g>
    <g clip-path="url(#p9ba408bf39)">
     <use style="fill:#8da0cb;stroke:#ffffff;stroke-width:0.48;" x="321.906782" xlink:href="#C0_0_788c9fb584" y="190.511379"/>
    </g>
    <g clip-path="url(#p9ba408bf39)">
     <use style="fill:#8da0cb;stroke:#ffffff;stroke-width:0.48;" x="335.137934" xlink:href="#C0_0_788c9fb584" y="141.999875"/>
    </g>
    <g clip-path="url(#p9ba408bf39)">
     <use style="fill:#8da0cb;stroke:#ffffff;stroke-width:0.48;" x="187.280378" xlink:href="#C0_0_788c9fb584" y="324.72"/>
    </g>
    <g clip-path="url(#p9ba408bf39)">
     <use style="fill:#8da0cb;stroke:#ffffff;stroke-width:0.48;" x="331.104004" xlink:href="#C0_0_788c9fb584" y="129.022359"/>
    </g>
    <g clip-path="url(#p9ba408bf39)">
     <use style="fill:#8da0cb;stroke:#ffffff;stroke-width:0.48;" x="291.54247" xlink:href="#C0_0_788c9fb584" y="188.688342"/>
    </g>
    <g clip-path="url(#p9ba408bf39)">
     <use style="fill:#e78ac3;stroke:#ffffff;stroke-width:0.48;" x="341.218806" xlink:href="#C0_0_788c9fb584" y="169.759311"/>
    </g>
    <g clip-path="url(#p9ba408bf39)">
     <use style="fill:#8da0cb;stroke:#ffffff;stroke-width:0.48;" x="324.728416" xlink:href="#C0_0_788c9fb584" y="183.10514"/>
    </g>
    <g clip-path="url(#p9ba408bf39)">
     <use style="fill:#8da0cb;stroke:#ffffff;stroke-width:0.48;" x="266.23143" xlink:href="#C0_0_788c9fb584" y="143.060395"/>
    </g>
    <g clip-path="url(#p9ba408bf39)">
     <use style="fill:#e78ac3;stroke:#ffffff;stroke-width:0.48;" x="308.609637" xlink:href="#C0_0_788c9fb584" y="150.520887"/>
    </g>
    <g clip-path="url(#p9ba408bf39)">
     <use style="fill:#8da0cb;stroke:#ffffff;stroke-width:0.48;" x="336.335623" xlink:href="#C0_0_788c9fb584" y="192.285875"/>
    </g>
    <g clip-path="url(#p9ba408bf39)">
     <use style="fill:#8da0cb;stroke:#ffffff;stroke-width:0.48;" x="230.300803" xlink:href="#C0_0_788c9fb584" y="131.45937"/>
    </g>
    <g clip-path="url(#p9ba408bf39)">
     <use style="fill:#8da0cb;stroke:#ffffff;stroke-width:0.48;" x="293.319274" xlink:href="#C0_0_788c9fb584" y="131.140717"/>
    </g>
    <g clip-path="url(#p9ba408bf39)">
     <use style="fill:#e78ac3;stroke:#ffffff;stroke-width:0.48;" x="332.709993" xlink:href="#C0_0_788c9fb584" y="220.182045"/>
    </g>
    <g clip-path="url(#p9ba408bf39)">
     <use style="fill:#e78ac3;stroke:#ffffff;stroke-width:0.48;" x="202.13051" xlink:href="#C0_0_788c9fb584" y="260.3261"/>
    </g>
    <g clip-path="url(#p9ba408bf39)">
     <use style="fill:#e78ac3;stroke:#ffffff;stroke-width:0.48;" x="288.048434" xlink:href="#C0_0_788c9fb584" y="229.558913"/>
    </g>
    <g clip-path="url(#p9ba408bf39)">
     <use style="fill:#8da0cb;stroke:#ffffff;stroke-width:0.48;" x="273.473887" xlink:href="#C0_0_788c9fb584" y="225.453249"/>
    </g>
    <g clip-path="url(#p9ba408bf39)">
     <use style="fill:#8da0cb;stroke:#ffffff;stroke-width:0.48;" x="305.780748" xlink:href="#C0_0_788c9fb584" y="168.520331"/>
    </g>
    <g clip-path="url(#p9ba408bf39)">
     <use style="fill:#8da0cb;stroke:#ffffff;stroke-width:0.48;" x="300.2295" xlink:href="#C0_0_788c9fb584" y="121.519"/>
    </g>
    <g clip-path="url(#p9ba408bf39)">
     <use style="fill:#e78ac3;stroke:#ffffff;stroke-width:0.48;" x="220.605426" xlink:href="#C0_0_788c9fb584" y="90.049176"/>
    </g>
    <g clip-path="url(#p9ba408bf39)">
     <use style="fill:#e78ac3;stroke:#ffffff;stroke-width:0.48;" x="319.046687" xlink:href="#C0_0_788c9fb584" y="153.551391"/>
    </g>
   </g>
   <g id="PathCollection_2"/>
   <g id="PathCollection_3"/>
   <g id="PathCollection_4">
    <defs>
     <path d="M 0 5 
C 1.326016 5 2.597899 4.473168 3.535534 3.535534 
C 4.473168 2.597899 5 1.326016 5 0 
C 5 -1.326016 4.473168 -2.597899 3.535534 -3.535534 
C 2.597899 -4.473168 1.326016 -5 0 -5 
C -1.326016 -5 -2.597899 -4.473168 -3.535534 -3.535534 
C -4.473168 -2.597899 -5 -1.326016 -5 0 
C -5 1.326016 -4.473168 2.597899 -3.535534 3.535534 
C -2.597899 4.473168 -1.326016 5 0 5 
z
" id="mec22c0acdb" style="stroke:#8da0cb;"/>
    </defs>
    <g clip-path="url(#p9ba408bf39)">
     <use style="fill:#8da0cb;stroke:#8da0cb;" x="285.522937" xlink:href="#mec22c0acdb" y="164.988368"/>
    </g>
   </g>
   <g id="PathCollection_5">
    <defs>
     <path d="M 0 5 
C 1.326016 5 2.597899 4.473168 3.535534 3.535534 
C 4.473168 2.597899 5 1.326016 5 0 
C 5 -1.326016 4.473168 -2.597899 3.535534 -3.535534 
C 2.597899 -4.473168 1.326016 -5 0 -5 
C -1.326016 -5 -2.597899 -4.473168 -3.535534 -3.535534 
C -4.473168 -2.597899 -5 -1.326016 -5 0 
C -5 1.326016 -4.473168 2.597899 -3.535534 3.535534 
C -2.597899 4.473168 -1.326016 5 0 5 
z
" id="m506052e9eb" style="stroke:#e78ac3;"/>
    </defs>
    <g clip-path="url(#p9ba408bf39)">
     <use style="fill:#e78ac3;stroke:#e78ac3;" x="275.360937" xlink:href="#m506052e9eb" y="168.712659"/>
    </g>
   </g>
   <g id="patch_3">
    <path clip-path="url(#p9ba408bf39)" d="M 390.620171 264.232891 
C 419.219137 237.226559 435.576907 200.865672 436.09087 163.158293 
C 436.604833 125.450913 421.233028 89.475683 393.360916 63.155727 
C 365.488804 36.835772 327.392019 22.32 287.460936 22.805342 
C 247.529854 23.290683 209.024669 38.737512 180.425703 65.743844 
C 151.826737 92.750176 135.468968 129.111063 134.955004 166.818443 
C 134.441041 204.525822 149.812846 240.501053 177.684958 266.821008 
C 205.55707 293.140963 243.653855 307.656735 283.584938 307.171394 
C 323.51602 306.686052 362.021205 291.239223 390.620171 264.232891 
z
" style="fill:none;stroke:#8da0cb;stroke-linejoin:miter;"/>
   </g>
   <g id="patch_4">
    <path clip-path="url(#p9ba408bf39)" d="M 421.012712 268.247894 
C 458.07118 242.922948 478.270028 208.144176 477.160695 171.5712 
C 476.051362 134.998224 453.72442 99.617064 415.097118 73.220012 
C 376.469815 46.822959 324.695902 31.565215 271.177981 30.807121 
C 217.660059 30.049027 166.767631 43.852478 129.709163 69.177424 
C 92.650695 94.50237 72.451847 129.281141 73.56118 165.854118 
C 74.670513 202.427094 96.997455 237.808253 135.624757 264.205306 
C 174.25206 290.602359 226.025973 305.860103 279.543894 306.618197 
C 333.061816 307.376291 383.954244 293.57284 421.012712 268.247894 
z
" style="fill:none;stroke:#e78ac3;stroke-linejoin:miter;"/>
   </g>
   <g id="matplotlib.axis_1">
    <g id="xtick_1">
     <g id="line2d_1">
      <defs>
       <path d="M 0 0 
L 0 3.5 
" id="m1b9a22e263" style="stroke:#000000;stroke-width:0.8;"/>
      </defs>
      <g>
       <use style="stroke:#000000;stroke-width:0.8;" x="108.598006" xlink:href="#m1b9a22e263" y="339.84"/>
      </g>
     </g>
     <g id="text_1">
      <!-- −0.6 -->
      <g transform="translate(96.4566 354.438438)scale(0.1 -0.1)">
       <defs>
        <path d="M 678 2272 
L 4684 2272 
L 4684 1741 
L 678 1741 
L 678 2272 
z
" id="DejaVuSans-2212" transform="scale(0.015625)"/>
        <path d="M 2034 4250 
Q 1547 4250 1301 3770 
Q 1056 3291 1056 2328 
Q 1056 1369 1301 889 
Q 1547 409 2034 409 
Q 2525 409 2770 889 
Q 3016 1369 3016 2328 
Q 3016 3291 2770 3770 
Q 2525 4250 2034 4250 
z
M 2034 4750 
Q 2819 4750 3233 4129 
Q 3647 3509 3647 2328 
Q 3647 1150 3233 529 
Q 2819 -91 2034 -91 
Q 1250 -91 836 529 
Q 422 1150 422 2328 
Q 422 3509 836 4129 
Q 1250 4750 2034 4750 
z
" id="DejaVuSans-30" transform="scale(0.015625)"/>
        <path d="M 684 794 
L 1344 794 
L 1344 0 
L 684 0 
L 684 794 
z
" id="DejaVuSans-2e" transform="scale(0.015625)"/>
        <path d="M 2113 2584 
Q 1688 2584 1439 2293 
Q 1191 2003 1191 1497 
Q 1191 994 1439 701 
Q 1688 409 2113 409 
Q 2538 409 2786 701 
Q 3034 994 3034 1497 
Q 3034 2003 2786 2293 
Q 2538 2584 2113 2584 
z
M 3366 4563 
L 3366 3988 
Q 3128 4100 2886 4159 
Q 2644 4219 2406 4219 
Q 1781 4219 1451 3797 
Q 1122 3375 1075 2522 
Q 1259 2794 1537 2939 
Q 1816 3084 2150 3084 
Q 2853 3084 3261 2657 
Q 3669 2231 3669 1497 
Q 3669 778 3244 343 
Q 2819 -91 2113 -91 
Q 1303 -91 875 529 
Q 447 1150 447 2328 
Q 447 3434 972 4092 
Q 1497 4750 2381 4750 
Q 2619 4750 2861 4703 
Q 3103 4656 3366 4563 
z
" id="DejaVuSans-36" transform="scale(0.015625)"/>
       </defs>
       <use xlink:href="#DejaVuSans-2212"/>
       <use x="83.789062" xlink:href="#DejaVuSans-30"/>
       <use x="147.412109" xlink:href="#DejaVuSans-2e"/>
       <use x="179.199219" xlink:href="#DejaVuSans-36"/>
      </g>
     </g>
    </g>
    <g id="xtick_2">
     <g id="line2d_2">
      <g>
       <use style="stroke:#000000;stroke-width:0.8;" x="166.302733" xlink:href="#m1b9a22e263" y="339.84"/>
      </g>
     </g>
     <g id="text_2">
      <!-- −0.4 -->
      <g transform="translate(154.161327 354.438438)scale(0.1 -0.1)">
       <defs>
        <path d="M 2419 4116 
L 825 1625 
L 2419 1625 
L 2419 4116 
z
M 2253 4666 
L 3047 4666 
L 3047 1625 
L 3713 1625 
L 3713 1100 
L 3047 1100 
L 3047 0 
L 2419 0 
L 2419 1100 
L 313 1100 
L 313 1709 
L 2253 4666 
z
" id="DejaVuSans-34" transform="scale(0.015625)"/>
       </defs>
       <use xlink:href="#DejaVuSans-2212"/>
       <use x="83.789062" xlink:href="#DejaVuSans-30"/>
       <use x="147.412109" xlink:href="#DejaVuSans-2e"/>
       <use x="179.199219" xlink:href="#DejaVuSans-34"/>
      </g>
     </g>
    </g>
    <g id="xtick_3">
     <g id="line2d_3">
      <g>
       <use style="stroke:#000000;stroke-width:0.8;" x="224.00746" xlink:href="#m1b9a22e263" y="339.84"/>
      </g>
     </g>
     <g id="text_3">
      <!-- −0.2 -->
      <g transform="translate(211.866054 354.438438)scale(0.1 -0.1)">
       <defs>
        <path d="M 1228 531 
L 3431 531 
L 3431 0 
L 469 0 
L 469 531 
Q 828 903 1448 1529 
Q 2069 2156 2228 2338 
Q 2531 2678 2651 2914 
Q 2772 3150 2772 3378 
Q 2772 3750 2511 3984 
Q 2250 4219 1831 4219 
Q 1534 4219 1204 4116 
Q 875 4013 500 3803 
L 500 4441 
Q 881 4594 1212 4672 
Q 1544 4750 1819 4750 
Q 2544 4750 2975 4387 
Q 3406 4025 3406 3419 
Q 3406 3131 3298 2873 
Q 3191 2616 2906 2266 
Q 2828 2175 2409 1742 
Q 1991 1309 1228 531 
z
" id="DejaVuSans-32" transform="scale(0.015625)"/>
       </defs>
       <use xlink:href="#DejaVuSans-2212"/>
       <use x="83.789062" xlink:href="#DejaVuSans-30"/>
       <use x="147.412109" xlink:href="#DejaVuSans-2e"/>
       <use x="179.199219" xlink:href="#DejaVuSans-32"/>
      </g>
     </g>
    </g>
    <g id="xtick_4">
     <g id="line2d_4">
      <g>
       <use style="stroke:#000000;stroke-width:0.8;" x="281.712187" xlink:href="#m1b9a22e263" y="339.84"/>
      </g>
     </g>
     <g id="text_4">
      <!-- 0.0 -->
      <g transform="translate(273.760625 354.438438)scale(0.1 -0.1)">
       <use xlink:href="#DejaVuSans-30"/>
       <use x="63.623047" xlink:href="#DejaVuSans-2e"/>
       <use x="95.410156" xlink:href="#DejaVuSans-30"/>
      </g>
     </g>
    </g>
    <g id="xtick_5">
     <g id="line2d_5">
      <g>
       <use style="stroke:#000000;stroke-width:0.8;" x="339.416914" xlink:href="#m1b9a22e263" y="339.84"/>
      </g>
     </g>
     <g id="text_5">
      <!-- 0.2 -->
      <g transform="translate(331.465352 354.438438)scale(0.1 -0.1)">
       <use xlink:href="#DejaVuSans-30"/>
       <use x="63.623047" xlink:href="#DejaVuSans-2e"/>
       <use x="95.410156" xlink:href="#DejaVuSans-32"/>
      </g>
     </g>
    </g>
    <g id="xtick_6">
     <g id="line2d_6">
      <g>
       <use style="stroke:#000000;stroke-width:0.8;" x="397.121641" xlink:href="#m1b9a22e263" y="339.84"/>
      </g>
     </g>
     <g id="text_6">
      <!-- 0.4 -->
      <g transform="translate(389.170079 354.438438)scale(0.1 -0.1)">
       <use xlink:href="#DejaVuSans-30"/>
       <use x="63.623047" xlink:href="#DejaVuSans-2e"/>
       <use x="95.410156" xlink:href="#DejaVuSans-34"/>
      </g>
     </g>
    </g>
    <g id="xtick_7">
     <g id="line2d_7">
      <g>
       <use style="stroke:#000000;stroke-width:0.8;" x="454.826368" xlink:href="#m1b9a22e263" y="339.84"/>
      </g>
     </g>
     <g id="text_7">
      <!-- 0.6 -->
      <g transform="translate(446.874806 354.438438)scale(0.1 -0.1)">
       <use xlink:href="#DejaVuSans-30"/>
       <use x="63.623047" xlink:href="#DejaVuSans-2e"/>
       <use x="95.410156" xlink:href="#DejaVuSans-36"/>
      </g>
     </g>
    </g>
    <g id="text_8">
     <!-- PCoA1 (33.19%) -->
     <g transform="translate(234.638281 368.116562)scale(0.1 -0.1)">
      <defs>
       <path d="M 1259 4147 
L 1259 2394 
L 2053 2394 
Q 2494 2394 2734 2622 
Q 2975 2850 2975 3272 
Q 2975 3691 2734 3919 
Q 2494 4147 2053 4147 
L 1259 4147 
z
M 628 4666 
L 2053 4666 
Q 2838 4666 3239 4311 
Q 3641 3956 3641 3272 
Q 3641 2581 3239 2228 
Q 2838 1875 2053 1875 
L 1259 1875 
L 1259 0 
L 628 0 
L 628 4666 
z
" id="DejaVuSans-50" transform="scale(0.015625)"/>
       <path d="M 4122 4306 
L 4122 3641 
Q 3803 3938 3442 4084 
Q 3081 4231 2675 4231 
Q 1875 4231 1450 3742 
Q 1025 3253 1025 2328 
Q 1025 1406 1450 917 
Q 1875 428 2675 428 
Q 3081 428 3442 575 
Q 3803 722 4122 1019 
L 4122 359 
Q 3791 134 3420 21 
Q 3050 -91 2638 -91 
Q 1578 -91 968 557 
Q 359 1206 359 2328 
Q 359 3453 968 4101 
Q 1578 4750 2638 4750 
Q 3056 4750 3426 4639 
Q 3797 4528 4122 4306 
z
" id="DejaVuSans-43" transform="scale(0.015625)"/>
       <path d="M 1959 3097 
Q 1497 3097 1228 2736 
Q 959 2375 959 1747 
Q 959 1119 1226 758 
Q 1494 397 1959 397 
Q 2419 397 2687 759 
Q 2956 1122 2956 1747 
Q 2956 2369 2687 2733 
Q 2419 3097 1959 3097 
z
M 1959 3584 
Q 2709 3584 3137 3096 
Q 3566 2609 3566 1747 
Q 3566 888 3137 398 
Q 2709 -91 1959 -91 
Q 1206 -91 779 398 
Q 353 888 353 1747 
Q 353 2609 779 3096 
Q 1206 3584 1959 3584 
z
" id="DejaVuSans-6f" transform="scale(0.015625)"/>
       <path d="M 2188 4044 
L 1331 1722 
L 3047 1722 
L 2188 4044 
z
M 1831 4666 
L 2547 4666 
L 4325 0 
L 3669 0 
L 3244 1197 
L 1141 1197 
L 716 0 
L 50 0 
L 1831 4666 
z
" id="DejaVuSans-41" transform="scale(0.015625)"/>
       <path d="M 794 531 
L 1825 531 
L 1825 4091 
L 703 3866 
L 703 4441 
L 1819 4666 
L 2450 4666 
L 2450 531 
L 3481 531 
L 3481 0 
L 794 0 
L 794 531 
z
" id="DejaVuSans-31" transform="scale(0.015625)"/>
       <path id="DejaVuSans-20" transform="scale(0.015625)"/>
       <path d="M 1984 4856 
Q 1566 4138 1362 3434 
Q 1159 2731 1159 2009 
Q 1159 1288 1364 580 
Q 1569 -128 1984 -844 
L 1484 -844 
Q 1016 -109 783 600 
Q 550 1309 550 2009 
Q 550 2706 781 3412 
Q 1013 4119 1484 4856 
L 1984 4856 
z
" id="DejaVuSans-28" transform="scale(0.015625)"/>
       <path d="M 2597 2516 
Q 3050 2419 3304 2112 
Q 3559 1806 3559 1356 
Q 3559 666 3084 287 
Q 2609 -91 1734 -91 
Q 1441 -91 1130 -33 
Q 819 25 488 141 
L 488 750 
Q 750 597 1062 519 
Q 1375 441 1716 441 
Q 2309 441 2620 675 
Q 2931 909 2931 1356 
Q 2931 1769 2642 2001 
Q 2353 2234 1838 2234 
L 1294 2234 
L 1294 2753 
L 1863 2753 
Q 2328 2753 2575 2939 
Q 2822 3125 2822 3475 
Q 2822 3834 2567 4026 
Q 2313 4219 1838 4219 
Q 1578 4219 1281 4162 
Q 984 4106 628 3988 
L 628 4550 
Q 988 4650 1302 4700 
Q 1616 4750 1894 4750 
Q 2613 4750 3031 4423 
Q 3450 4097 3450 3541 
Q 3450 3153 3228 2886 
Q 3006 2619 2597 2516 
z
" id="DejaVuSans-33" transform="scale(0.015625)"/>
       <path d="M 703 97 
L 703 672 
Q 941 559 1184 500 
Q 1428 441 1663 441 
Q 2288 441 2617 861 
Q 2947 1281 2994 2138 
Q 2813 1869 2534 1725 
Q 2256 1581 1919 1581 
Q 1219 1581 811 2004 
Q 403 2428 403 3163 
Q 403 3881 828 4315 
Q 1253 4750 1959 4750 
Q 2769 4750 3195 4129 
Q 3622 3509 3622 2328 
Q 3622 1225 3098 567 
Q 2575 -91 1691 -91 
Q 1453 -91 1209 -44 
Q 966 3 703 97 
z
M 1959 2075 
Q 2384 2075 2632 2365 
Q 2881 2656 2881 3163 
Q 2881 3666 2632 3958 
Q 2384 4250 1959 4250 
Q 1534 4250 1286 3958 
Q 1038 3666 1038 3163 
Q 1038 2656 1286 2365 
Q 1534 2075 1959 2075 
z
" id="DejaVuSans-39" transform="scale(0.015625)"/>
       <path d="M 4653 2053 
Q 4381 2053 4226 1822 
Q 4072 1591 4072 1178 
Q 4072 772 4226 539 
Q 4381 306 4653 306 
Q 4919 306 5073 539 
Q 5228 772 5228 1178 
Q 5228 1588 5073 1820 
Q 4919 2053 4653 2053 
z
M 4653 2450 
Q 5147 2450 5437 2106 
Q 5728 1763 5728 1178 
Q 5728 594 5436 251 
Q 5144 -91 4653 -91 
Q 4153 -91 3862 251 
Q 3572 594 3572 1178 
Q 3572 1766 3864 2108 
Q 4156 2450 4653 2450 
z
M 1428 4353 
Q 1159 4353 1004 4120 
Q 850 3888 850 3481 
Q 850 3069 1003 2837 
Q 1156 2606 1428 2606 
Q 1700 2606 1854 2837 
Q 2009 3069 2009 3481 
Q 2009 3884 1853 4118 
Q 1697 4353 1428 4353 
z
M 4250 4750 
L 4750 4750 
L 1831 -91 
L 1331 -91 
L 4250 4750 
z
M 1428 4750 
Q 1922 4750 2215 4408 
Q 2509 4066 2509 3481 
Q 2509 2891 2217 2550 
Q 1925 2209 1428 2209 
Q 931 2209 642 2551 
Q 353 2894 353 3481 
Q 353 4063 643 4406 
Q 934 4750 1428 4750 
z
" id="DejaVuSans-25" transform="scale(0.015625)"/>
       <path d="M 513 4856 
L 1013 4856 
Q 1481 4119 1714 3412 
Q 1947 2706 1947 2009 
Q 1947 1309 1714 600 
Q 1481 -109 1013 -844 
L 513 -844 
Q 928 -128 1133 580 
Q 1338 1288 1338 2009 
Q 1338 2731 1133 3434 
Q 928 4138 513 4856 
z
" id="DejaVuSans-29" transform="scale(0.015625)"/>
      </defs>
      <use xlink:href="#DejaVuSans-50"/>
      <use x="60.302734" xlink:href="#DejaVuSans-43"/>
      <use x="130.126953" xlink:href="#DejaVuSans-6f"/>
      <use x="191.308594" xlink:href="#DejaVuSans-41"/>
      <use x="259.716797" xlink:href="#DejaVuSans-31"/>
      <use x="323.339844" xlink:href="#DejaVuSans-20"/>
      <use x="355.126953" xlink:href="#DejaVuSans-28"/>
      <use x="394.140625" xlink:href="#DejaVuSans-33"/>
      <use x="457.763672" xlink:href="#DejaVuSans-33"/>
      <use x="521.386719" xlink:href="#DejaVuSans-2e"/>
      <use x="553.173828" xlink:href="#DejaVuSans-31"/>
      <use x="616.796875" xlink:href="#DejaVuSans-39"/>
      <use x="680.419922" xlink:href="#DejaVuSans-25"/>
      <use x="775.439453" xlink:href="#DejaVuSans-29"/>
     </g>
    </g>
   </g>
   <g id="matplotlib.axis_2">
    <g id="ytick_1">
     <g id="line2d_8">
      <defs>
       <path d="M 0 0 
L -3.5 0 
" id="m8e09e1e994" style="stroke:#000000;stroke-width:0.8;"/>
      </defs>
      <g>
       <use style="stroke:#000000;stroke-width:0.8;" x="52.160938" xlink:href="#m8e09e1e994" y="314.238299"/>
      </g>
     </g>
     <g id="text_9">
      <!-- −0.4 -->
      <g transform="translate(20.878125 318.037517)scale(0.1 -0.1)">
       <use xlink:href="#DejaVuSans-2212"/>
       <use x="83.789062" xlink:href="#DejaVuSans-30"/>
       <use x="147.412109" xlink:href="#DejaVuSans-2e"/>
       <use x="179.199219" xlink:href="#DejaVuSans-34"/>
      </g>
     </g>
    </g>
    <g id="ytick_2">
     <g id="line2d_9">
      <g>
       <use style="stroke:#000000;stroke-width:0.8;" x="52.160938" xlink:href="#m8e09e1e994" y="277.274968"/>
      </g>
     </g>
     <g id="text_10">
      <!-- −0.3 -->
      <g transform="translate(20.878125 281.074187)scale(0.1 -0.1)">
       <use xlink:href="#DejaVuSans-2212"/>
       <use x="83.789062" xlink:href="#DejaVuSans-30"/>
       <use x="147.412109" xlink:href="#DejaVuSans-2e"/>
       <use x="179.199219" xlink:href="#DejaVuSans-33"/>
      </g>
     </g>
    </g>
    <g id="ytick_3">
     <g id="line2d_10">
      <g>
       <use style="stroke:#000000;stroke-width:0.8;" x="52.160938" xlink:href="#m8e09e1e994" y="240.311638"/>
      </g>
     </g>
     <g id="text_11">
      <!-- −0.2 -->
      <g transform="translate(20.878125 244.110856)scale(0.1 -0.1)">
       <use xlink:href="#DejaVuSans-2212"/>
       <use x="83.789062" xlink:href="#DejaVuSans-30"/>
       <use x="147.412109" xlink:href="#DejaVuSans-2e"/>
       <use x="179.199219" xlink:href="#DejaVuSans-32"/>
      </g>
     </g>
    </g>
    <g id="ytick_4">
     <g id="line2d_11">
      <g>
       <use style="stroke:#000000;stroke-width:0.8;" x="52.160938" xlink:href="#m8e09e1e994" y="203.348307"/>
      </g>
     </g>
     <g id="text_12">
      <!-- −0.1 -->
      <g transform="translate(20.878125 207.147526)scale(0.1 -0.1)">
       <use xlink:href="#DejaVuSans-2212"/>
       <use x="83.789062" xlink:href="#DejaVuSans-30"/>
       <use x="147.412109" xlink:href="#DejaVuSans-2e"/>
       <use x="179.199219" xlink:href="#DejaVuSans-31"/>
      </g>
     </g>
    </g>
    <g id="ytick_5">
     <g id="line2d_12">
      <g>
       <use style="stroke:#000000;stroke-width:0.8;" x="52.160938" xlink:href="#m8e09e1e994" y="166.384977"/>
      </g>
     </g>
     <g id="text_13">
      <!-- 0.0 -->
      <g transform="translate(29.257812 170.184196)scale(0.1 -0.1)">
       <use xlink:href="#DejaVuSans-30"/>
       <use x="63.623047" xlink:href="#DejaVuSans-2e"/>
       <use x="95.410156" xlink:href="#DejaVuSans-30"/>
      </g>
     </g>
    </g>
    <g id="ytick_6">
     <g id="line2d_13">
      <g>
       <use style="stroke:#000000;stroke-width:0.8;" x="52.160938" xlink:href="#m8e09e1e994" y="129.421646"/>
      </g>
     </g>
     <g id="text_14">
      <!-- 0.1 -->
      <g transform="translate(29.257812 133.220865)scale(0.1 -0.1)">
       <use xlink:href="#DejaVuSans-30"/>
       <use x="63.623047" xlink:href="#DejaVuSans-2e"/>
       <use x="95.410156" xlink:href="#DejaVuSans-31"/>
      </g>
     </g>
    </g>
    <g id="ytick_7">
     <g id="line2d_14">
      <g>
       <use style="stroke:#000000;stroke-width:0.8;" x="52.160938" xlink:href="#m8e09e1e994" y="92.458316"/>
      </g>
     </g>
     <g id="text_15">
      <!-- 0.2 -->
      <g transform="translate(29.257812 96.257535)scale(0.1 -0.1)">
       <use xlink:href="#DejaVuSans-30"/>
       <use x="63.623047" xlink:href="#DejaVuSans-2e"/>
       <use x="95.410156" xlink:href="#DejaVuSans-32"/>
      </g>
     </g>
    </g>
    <g id="ytick_8">
     <g id="line2d_15">
      <g>
       <use style="stroke:#000000;stroke-width:0.8;" x="52.160938" xlink:href="#m8e09e1e994" y="55.494986"/>
      </g>
     </g>
     <g id="text_16">
      <!-- 0.3 -->
      <g transform="translate(29.257812 59.294204)scale(0.1 -0.1)">
       <use xlink:href="#DejaVuSans-30"/>
       <use x="63.623047" xlink:href="#DejaVuSans-2e"/>
       <use x="95.410156" xlink:href="#DejaVuSans-33"/>
      </g>
     </g>
    </g>
    <g id="ytick_9">
     <g id="line2d_16">
      <g>
       <use style="stroke:#000000;stroke-width:0.8;" x="52.160938" xlink:href="#m8e09e1e994" y="18.531655"/>
      </g>
     </g>
     <g id="text_17">
      <!-- 0.4 -->
      <g transform="translate(29.257812 22.330874)scale(0.1 -0.1)">
       <use xlink:href="#DejaVuSans-30"/>
       <use x="63.623047" xlink:href="#DejaVuSans-2e"/>
       <use x="95.410156" xlink:href="#DejaVuSans-34"/>
      </g>
     </g>
    </g>
    <g id="text_18">
     <!-- PCoA2 (13.53%) -->
     <g transform="translate(14.798437 214.242656)rotate(-90)scale(0.1 -0.1)">
      <defs>
       <path d="M 691 4666 
L 3169 4666 
L 3169 4134 
L 1269 4134 
L 1269 2991 
Q 1406 3038 1543 3061 
Q 1681 3084 1819 3084 
Q 2600 3084 3056 2656 
Q 3513 2228 3513 1497 
Q 3513 744 3044 326 
Q 2575 -91 1722 -91 
Q 1428 -91 1123 -41 
Q 819 9 494 109 
L 494 744 
Q 775 591 1075 516 
Q 1375 441 1709 441 
Q 2250 441 2565 725 
Q 2881 1009 2881 1497 
Q 2881 1984 2565 2268 
Q 2250 2553 1709 2553 
Q 1456 2553 1204 2497 
Q 953 2441 691 2322 
L 691 4666 
z
" id="DejaVuSans-35" transform="scale(0.015625)"/>
      </defs>
      <use xlink:href="#DejaVuSans-50"/>
      <use x="60.302734" xlink:href="#DejaVuSans-43"/>
      <use x="130.126953" xlink:href="#DejaVuSans-6f"/>
      <use x="191.308594" xlink:href="#DejaVuSans-41"/>
      <use x="259.716797" xlink:href="#DejaVuSans-32"/>
      <use x="323.339844" xlink:href="#DejaVuSans-20"/>
      <use x="355.126953" xlink:href="#DejaVuSans-28"/>
      <use x="394.140625" xlink:href="#DejaVuSans-31"/>
      <use x="457.763672" xlink:href="#DejaVuSans-33"/>
      <use x="521.386719" xlink:href="#DejaVuSans-2e"/>
      <use x="553.173828" xlink:href="#DejaVuSans-35"/>
      <use x="616.796875" xlink:href="#DejaVuSans-33"/>
      <use x="680.419922" xlink:href="#DejaVuSans-25"/>
      <use x="775.439453" xlink:href="#DejaVuSans-29"/>
     </g>
    </g>
   </g>
   <g id="patch_5">
    <path d="M 52.160938 339.84 
L 52.160938 7.2 
" style="fill:none;stroke:#000000;stroke-linecap:square;stroke-linejoin:miter;stroke-width:0.8;"/>
   </g>
   <g id="patch_6">
    <path d="M 498.560937 339.84 
L 498.560937 7.2 
" style="fill:none;stroke:#000000;stroke-linecap:square;stroke-linejoin:miter;stroke-width:0.8;"/>
   </g>
   <g id="patch_7">
    <path d="M 52.160937 339.84 
L 498.560937 339.84 
" style="fill:none;stroke:#000000;stroke-linecap:square;stroke-linejoin:miter;stroke-width:0.8;"/>
   </g>
   <g id="patch_8">
    <path d="M 52.160937 7.2 
L 498.560937 7.2 
" style="fill:none;stroke:#000000;stroke-linecap:square;stroke-linejoin:miter;stroke-width:0.8;"/>
   </g>
   <g id="text_19">
    <!-- Permanova p-value : 0.34 -->
    <g transform="translate(142.625113 90.049176)scale(0.1 -0.1)">
     <defs>
      <path d="M 3597 1894 
L 3597 1613 
L 953 1613 
Q 991 1019 1311 708 
Q 1631 397 2203 397 
Q 2534 397 2845 478 
Q 3156 559 3463 722 
L 3463 178 
Q 3153 47 2828 -22 
Q 2503 -91 2169 -91 
Q 1331 -91 842 396 
Q 353 884 353 1716 
Q 353 2575 817 3079 
Q 1281 3584 2069 3584 
Q 2775 3584 3186 3129 
Q 3597 2675 3597 1894 
z
M 3022 2063 
Q 3016 2534 2758 2815 
Q 2500 3097 2075 3097 
Q 1594 3097 1305 2825 
Q 1016 2553 972 2059 
L 3022 2063 
z
" id="DejaVuSans-65" transform="scale(0.015625)"/>
      <path d="M 2631 2963 
Q 2534 3019 2420 3045 
Q 2306 3072 2169 3072 
Q 1681 3072 1420 2755 
Q 1159 2438 1159 1844 
L 1159 0 
L 581 0 
L 581 3500 
L 1159 3500 
L 1159 2956 
Q 1341 3275 1631 3429 
Q 1922 3584 2338 3584 
Q 2397 3584 2469 3576 
Q 2541 3569 2628 3553 
L 2631 2963 
z
" id="DejaVuSans-72" transform="scale(0.015625)"/>
      <path d="M 3328 2828 
Q 3544 3216 3844 3400 
Q 4144 3584 4550 3584 
Q 5097 3584 5394 3201 
Q 5691 2819 5691 2113 
L 5691 0 
L 5113 0 
L 5113 2094 
Q 5113 2597 4934 2840 
Q 4756 3084 4391 3084 
Q 3944 3084 3684 2787 
Q 3425 2491 3425 1978 
L 3425 0 
L 2847 0 
L 2847 2094 
Q 2847 2600 2669 2842 
Q 2491 3084 2119 3084 
Q 1678 3084 1418 2786 
Q 1159 2488 1159 1978 
L 1159 0 
L 581 0 
L 581 3500 
L 1159 3500 
L 1159 2956 
Q 1356 3278 1631 3431 
Q 1906 3584 2284 3584 
Q 2666 3584 2933 3390 
Q 3200 3197 3328 2828 
z
" id="DejaVuSans-6d" transform="scale(0.015625)"/>
      <path d="M 2194 1759 
Q 1497 1759 1228 1600 
Q 959 1441 959 1056 
Q 959 750 1161 570 
Q 1363 391 1709 391 
Q 2188 391 2477 730 
Q 2766 1069 2766 1631 
L 2766 1759 
L 2194 1759 
z
M 3341 1997 
L 3341 0 
L 2766 0 
L 2766 531 
Q 2569 213 2275 61 
Q 1981 -91 1556 -91 
Q 1019 -91 701 211 
Q 384 513 384 1019 
Q 384 1609 779 1909 
Q 1175 2209 1959 2209 
L 2766 2209 
L 2766 2266 
Q 2766 2663 2505 2880 
Q 2244 3097 1772 3097 
Q 1472 3097 1187 3025 
Q 903 2953 641 2809 
L 641 3341 
Q 956 3463 1253 3523 
Q 1550 3584 1831 3584 
Q 2591 3584 2966 3190 
Q 3341 2797 3341 1997 
z
" id="DejaVuSans-61" transform="scale(0.015625)"/>
      <path d="M 3513 2113 
L 3513 0 
L 2938 0 
L 2938 2094 
Q 2938 2591 2744 2837 
Q 2550 3084 2163 3084 
Q 1697 3084 1428 2787 
Q 1159 2491 1159 1978 
L 1159 0 
L 581 0 
L 581 3500 
L 1159 3500 
L 1159 2956 
Q 1366 3272 1645 3428 
Q 1925 3584 2291 3584 
Q 2894 3584 3203 3211 
Q 3513 2838 3513 2113 
z
" id="DejaVuSans-6e" transform="scale(0.015625)"/>
      <path d="M 191 3500 
L 800 3500 
L 1894 563 
L 2988 3500 
L 3597 3500 
L 2284 0 
L 1503 0 
L 191 3500 
z
" id="DejaVuSans-76" transform="scale(0.015625)"/>
      <path d="M 1159 525 
L 1159 -1331 
L 581 -1331 
L 581 3500 
L 1159 3500 
L 1159 2969 
Q 1341 3281 1617 3432 
Q 1894 3584 2278 3584 
Q 2916 3584 3314 3078 
Q 3713 2572 3713 1747 
Q 3713 922 3314 415 
Q 2916 -91 2278 -91 
Q 1894 -91 1617 61 
Q 1341 213 1159 525 
z
M 3116 1747 
Q 3116 2381 2855 2742 
Q 2594 3103 2138 3103 
Q 1681 3103 1420 2742 
Q 1159 2381 1159 1747 
Q 1159 1113 1420 752 
Q 1681 391 2138 391 
Q 2594 391 2855 752 
Q 3116 1113 3116 1747 
z
" id="DejaVuSans-70" transform="scale(0.015625)"/>
      <path d="M 313 2009 
L 1997 2009 
L 1997 1497 
L 313 1497 
L 313 2009 
z
" id="DejaVuSans-2d" transform="scale(0.015625)"/>
      <path d="M 603 4863 
L 1178 4863 
L 1178 0 
L 603 0 
L 603 4863 
z
" id="DejaVuSans-6c" transform="scale(0.015625)"/>
      <path d="M 544 1381 
L 544 3500 
L 1119 3500 
L 1119 1403 
Q 1119 906 1312 657 
Q 1506 409 1894 409 
Q 2359 409 2629 706 
Q 2900 1003 2900 1516 
L 2900 3500 
L 3475 3500 
L 3475 0 
L 2900 0 
L 2900 538 
Q 2691 219 2414 64 
Q 2138 -91 1772 -91 
Q 1169 -91 856 284 
Q 544 659 544 1381 
z
M 1991 3584 
L 1991 3584 
z
" id="DejaVuSans-75" transform="scale(0.015625)"/>
      <path d="M 750 794 
L 1409 794 
L 1409 0 
L 750 0 
L 750 794 
z
M 750 3309 
L 1409 3309 
L 1409 2516 
L 750 2516 
L 750 3309 
z
" id="DejaVuSans-3a" transform="scale(0.015625)"/>
     </defs>
     <use xlink:href="#DejaVuSans-50"/>
     <use x="56.677734" xlink:href="#DejaVuSans-65"/>
     <use x="118.201172" xlink:href="#DejaVuSans-72"/>
     <use x="157.564453" xlink:href="#DejaVuSans-6d"/>
     <use x="254.976562" xlink:href="#DejaVuSans-61"/>
     <use x="316.255859" xlink:href="#DejaVuSans-6e"/>
     <use x="379.634766" xlink:href="#DejaVuSans-6f"/>
     <use x="440.816406" xlink:href="#DejaVuSans-76"/>
     <use x="499.996094" xlink:href="#DejaVuSans-61"/>
     <use x="561.275391" xlink:href="#DejaVuSans-20"/>
     <use x="593.0625" xlink:href="#DejaVuSans-70"/>
     <use x="656.539062" xlink:href="#DejaVuSans-2d"/>
     <use x="689.998047" xlink:href="#DejaVuSans-76"/>
     <use x="749.177734" xlink:href="#DejaVuSans-61"/>
     <use x="810.457031" xlink:href="#DejaVuSans-6c"/>
     <use x="838.240234" xlink:href="#DejaVuSans-75"/>
     <use x="901.619141" xlink:href="#DejaVuSans-65"/>
     <use x="963.142578" xlink:href="#DejaVuSans-20"/>
     <use x="994.929688" xlink:href="#DejaVuSans-3a"/>
     <use x="1028.621094" xlink:href="#DejaVuSans-20"/>
     <use x="1060.408203" xlink:href="#DejaVuSans-30"/>
     <use x="1124.03125" xlink:href="#DejaVuSans-2e"/>
     <use x="1155.818359" xlink:href="#DejaVuSans-33"/>
     <use x="1219.441406" xlink:href="#DejaVuSans-34"/>
    </g>
   </g>
   <g id="legend_1">
    <g id="patch_9">
     <path d="M 453.198437 59.234375 
L 491.560937 59.234375 
Q 493.560937 59.234375 493.560937 57.234375 
L 493.560937 14.2 
Q 493.560937 12.2 491.560937 12.2 
L 453.198437 12.2 
Q 451.198437 12.2 451.198437 14.2 
L 451.198437 57.234375 
Q 451.198437 59.234375 453.198437 59.234375 
z
" style="fill:#ffffff;opacity:0.8;stroke:#cccccc;stroke-linejoin:miter;"/>
    </g>
    <g id="text_20">
     <!-- cluster -->
     <g transform="translate(455.375781 23.798437)scale(0.1 -0.1)">
      <defs>
       <path d="M 3122 3366 
L 3122 2828 
Q 2878 2963 2633 3030 
Q 2388 3097 2138 3097 
Q 1578 3097 1268 2742 
Q 959 2388 959 1747 
Q 959 1106 1268 751 
Q 1578 397 2138 397 
Q 2388 397 2633 464 
Q 2878 531 3122 666 
L 3122 134 
Q 2881 22 2623 -34 
Q 2366 -91 2075 -91 
Q 1284 -91 818 406 
Q 353 903 353 1747 
Q 353 2603 823 3093 
Q 1294 3584 2113 3584 
Q 2378 3584 2631 3529 
Q 2884 3475 3122 3366 
z
" id="DejaVuSans-63" transform="scale(0.015625)"/>
       <path d="M 2834 3397 
L 2834 2853 
Q 2591 2978 2328 3040 
Q 2066 3103 1784 3103 
Q 1356 3103 1142 2972 
Q 928 2841 928 2578 
Q 928 2378 1081 2264 
Q 1234 2150 1697 2047 
L 1894 2003 
Q 2506 1872 2764 1633 
Q 3022 1394 3022 966 
Q 3022 478 2636 193 
Q 2250 -91 1575 -91 
Q 1294 -91 989 -36 
Q 684 19 347 128 
L 347 722 
Q 666 556 975 473 
Q 1284 391 1588 391 
Q 1994 391 2212 530 
Q 2431 669 2431 922 
Q 2431 1156 2273 1281 
Q 2116 1406 1581 1522 
L 1381 1569 
Q 847 1681 609 1914 
Q 372 2147 372 2553 
Q 372 3047 722 3315 
Q 1072 3584 1716 3584 
Q 2034 3584 2315 3537 
Q 2597 3491 2834 3397 
z
" id="DejaVuSans-73" transform="scale(0.015625)"/>
       <path d="M 1172 4494 
L 1172 3500 
L 2356 3500 
L 2356 3053 
L 1172 3053 
L 1172 1153 
Q 1172 725 1289 603 
Q 1406 481 1766 481 
L 2356 481 
L 2356 0 
L 1766 0 
Q 1100 0 847 248 
Q 594 497 594 1153 
L 594 3053 
L 172 3053 
L 172 3500 
L 594 3500 
L 594 4494 
L 1172 4494 
z
" id="DejaVuSans-74" transform="scale(0.015625)"/>
      </defs>
      <use xlink:href="#DejaVuSans-63"/>
      <use x="54.980469" xlink:href="#DejaVuSans-6c"/>
      <use x="82.763672" xlink:href="#DejaVuSans-75"/>
      <use x="146.142578" xlink:href="#DejaVuSans-73"/>
      <use x="198.242188" xlink:href="#DejaVuSans-74"/>
      <use x="237.451172" xlink:href="#DejaVuSans-65"/>
      <use x="298.974609" xlink:href="#DejaVuSans-72"/>
     </g>
    </g>
    <g id="PathCollection_6">
     <defs>
      <path d="M 0 3 
C 0.795609 3 1.55874 2.683901 2.12132 2.12132 
C 2.683901 1.55874 3 0.795609 3 0 
C 3 -0.795609 2.683901 -1.55874 2.12132 -2.12132 
C 1.55874 -2.683901 0.795609 -3 0 -3 
C -0.795609 -3 -1.55874 -2.683901 -2.12132 -2.12132 
C -2.683901 -1.55874 -3 -0.795609 -3 0 
C -3 0.795609 -2.683901 1.55874 -2.12132 2.12132 
C -1.55874 2.683901 -0.795609 3 0 3 
z
" id="mfb06d1a735" style="stroke:#8da0cb;"/>
     </defs>
     <g>
      <use style="fill:#8da0cb;stroke:#8da0cb;" x="465.198437" xlink:href="#mfb06d1a735" y="35.851562"/>
     </g>
    </g>
    <g id="text_21">
     <!-- 3 -->
     <g transform="translate(483.198437 38.476562)scale(0.1 -0.1)">
      <use xlink:href="#DejaVuSans-33"/>
     </g>
    </g>
    <g id="PathCollection_7">
     <defs>
      <path d="M 0 3 
C 0.795609 3 1.55874 2.683901 2.12132 2.12132 
C 2.683901 1.55874 3 0.795609 3 0 
C 3 -0.795609 2.683901 -1.55874 2.12132 -2.12132 
C 1.55874 -2.683901 0.795609 -3 0 -3 
C -0.795609 -3 -1.55874 -2.683901 -2.12132 -2.12132 
C -2.683901 -1.55874 -3 -0.795609 -3 0 
C -3 0.795609 -2.683901 1.55874 -2.12132 2.12132 
C -1.55874 2.683901 -0.795609 3 0 3 
z
" id="mc6c9259e57" style="stroke:#e78ac3;"/>
     </defs>
     <g>
      <use style="fill:#e78ac3;stroke:#e78ac3;" x="465.198437" xlink:href="#mc6c9259e57" y="50.529688"/>
     </g>
    </g>
    <g id="text_22">
     <!-- 4 -->
     <g transform="translate(483.198437 53.154688)scale(0.1 -0.1)">
      <use xlink:href="#DejaVuSans-34"/>
     </g>
    </g>
   </g>
  </g>
 </g>
 <defs>
  <clipPath id="p9ba408bf39">
   <rect height="332.64" width="446.4" x="52.160938" y="7.2"/>
  </clipPath>
 </defs>
</svg>
